<?xml version="1.0" encoding="UTF-8"?>
<!DOCTYPE svg PUBLIC "-//W3C//DTD SVG 1.1//EN" "http://www.w3.org/Graphics/SVG/1.1/DTD/svg11.dtd">
<svg xmlns="http://www.w3.org/2000/svg" version="1.1" width="1422px" height="1668px" style="shape-rendering:geometricPrecision; text-rendering:geometricPrecision; image-rendering:optimizeQuality; fill-rule:evenodd; clip-rule:evenodd" xmlns:xlink="http://www.w3.org/1999/xlink">
<g><path style="opacity:0.991" fill="#f1f3f6" d="M 676.5,-0.5 C 699.167,-0.5 721.833,-0.5 744.5,-0.5C 899.383,11.5333 1030.55,73.2 1138,184.5C 1240.51,296.551 1296.84,428.885 1307,581.5C 1308.19,648.159 1308.86,714.826 1309,781.5C 1313.61,831.935 1326.94,879.935 1349,925.5C 1364.07,955.861 1380.73,985.194 1399,1013.5C 1411.29,1037.2 1418.79,1062.2 1421.5,1088.5C 1421.5,1097.83 1421.5,1107.17 1421.5,1116.5C 1412.1,1198.75 1368.1,1253.25 1289.5,1280C 1277.39,1283.52 1265.06,1285.85 1252.5,1287C 885.479,1288 518.479,1287.66 151.5,1286C 80.1943,1272.02 32.3609,1230.86 8,1162.5C 4.07838,1149.6 1.24504,1136.6 -0.5,1123.5C -0.5,1111.17 -0.5,1098.83 -0.5,1086.5C 2.40187,1063.24 8.90187,1040.91 19,1019.5C 45.2826,975.6 67.2826,929.6 85,881.5C 99.2969,841.349 107.964,800.016 111,757.5C 111.1,698.823 111.767,640.156 113,581.5C 123.849,428.145 181.182,295.478 285,183.5C 392.052,73.0659 522.552,11.7326 676.5,-0.5 Z M 683.5,90.5 C 844.744,86.5707 978.911,144.237 1086,263.5C 1165.1,357.052 1208.43,465.386 1216,588.5C 1216.07,655.512 1216.74,722.512 1218,789.5C 1222.75,844.826 1236.41,897.826 1259,948.5C 1275.12,984.902 1294.12,1019.57 1316,1052.5C 1338.11,1092.92 1334.78,1130.92 1306,1166.5C 1289.29,1183.19 1269.13,1193.03 1245.5,1196C 886.167,1196.67 526.833,1196.67 167.5,1196C 131.439,1189.61 107.273,1169.11 95,1134.5C 88.2754,1111.5 89.2754,1088.83 98,1066.5C 119.776,1028.28 139.442,988.949 157,948.5C 182.055,888.946 197.055,826.946 202,762.5C 202.333,711.5 202.667,660.5 203,609.5C 208.593,450.51 270.093,318.01 387.5,212C 472.662,139.272 571.329,98.7724 683.5,90.5 Z"/></g>
<g><path style="opacity:0.989" fill="#f1f3f6" d="M 731.5,1667.5 C 717.5,1667.5 703.5,1667.5 689.5,1667.5C 583.954,1657 503.121,1607 447,1517.5C 430.565,1489.29 418.565,1459.29 411,1427.5C 407.849,1402.96 417.349,1385.46 439.5,1375C 465.877,1368.11 485.377,1376.61 498,1400.5C 516.587,1477.91 562.42,1532.07 635.5,1563C 684.708,1581.31 733.708,1580.64 782.5,1561C 840.194,1537.97 882.361,1498.47 909,1442.5C 915.072,1426.28 920.738,1409.95 926,1393.5C 942.378,1372.28 962.878,1367.11 987.5,1378C 1006.76,1390.43 1013.93,1407.93 1009,1430.5C 983.228,1528.26 924.728,1598.76 833.5,1642C 800.794,1656.18 766.794,1664.68 731.5,1667.5 Z"/></g>
</svg>
