<?xml version="1.0" encoding="UTF-8"?>
<!DOCTYPE svg PUBLIC "-//W3C//DTD SVG 1.1//EN" "http://www.w3.org/Graphics/SVG/1.1/DTD/svg11.dtd">
<svg xmlns="http://www.w3.org/2000/svg" version="1.1" width="2294px" height="2294px" style="shape-rendering:geometricPrecision; text-rendering:geometricPrecision; image-rendering:optimizeQuality; fill-rule:evenodd; clip-rule:evenodd" xmlns:xlink="http://www.w3.org/1999/xlink">
<g><path style="opacity:0.992" fill="#37495c" d="M 1123.5,-0.5 C 1142.5,-0.5 1161.5,-0.5 1180.5,-0.5C 1498.87,13.3049 1767.37,134.972 1986,364.5C 2178.07,574.114 2280.57,821.781 2293.5,1107.5C 2293.5,1133.83 2293.5,1160.17 2293.5,1186.5C 2278.62,1493.55 2162.62,1754.72 1945.5,1970C 1731.54,2173.42 1476.21,2281.25 1179.5,2293.5C 1158.83,2293.5 1138.17,2293.5 1117.5,2293.5C 820.199,2282.62 564.199,2175.45 349.5,1972C 129.109,1754.63 12.442,1490.46 -0.5,1179.5C -0.5,1157.83 -0.5,1136.17 -0.5,1114.5C 12.3646,798.821 131.698,531.654 357.5,313C 544.239,139.164 765.239,37.1637 1020.5,7C 1054.91,3.35197 1089.24,0.851967 1123.5,-0.5 Z M 1110.5,118.5 C 1392.07,112.897 1636.73,203.731 1844.5,391C 2040.66,576.132 2149.82,803.965 2172,1074.5C 2187.61,1333.18 2117.95,1565.51 1963,1771.5C 1825.46,1947.92 1649.29,2068.75 1434.5,2134C 1216.71,2194.95 1001.38,2187.28 788.5,2111C 546.132,2017.62 362.632,1857.12 238,1629.5C 124.495,1410.45 91.4945,1179.79 139,937.5C 191.278,698.986 311.112,502.486 498.5,348C 676.875,205.017 880.875,128.517 1110.5,118.5 Z"/></g>
<g><path style="opacity:0.998" fill="#7728fe" d="M 1117.5,602.5 C 1267.78,597.194 1399.11,643.694 1511.5,742C 1637.15,859.826 1696.65,1005.33 1690,1178.5C 1676.39,1349.94 1601.22,1486.78 1464.5,1589C 1344.58,1672.48 1211.91,1704.48 1066.5,1685C 923.494,1661.78 806.994,1593.94 717,1481.5C 622.996,1356.5 586.996,1216.16 609,1060.5C 638.134,897.6 721.967,771.767 860.5,683C 939.518,634.938 1025.18,608.105 1117.5,602.5 Z"/></g>
</svg>
