<?xml version="1.0" encoding="UTF-8"?>
<!DOCTYPE svg PUBLIC "-//W3C//DTD SVG 1.1//EN" "http://www.w3.org/Graphics/SVG/1.1/DTD/svg11.dtd">
<svg xmlns="http://www.w3.org/2000/svg" version="1.1" width="2292px" height="2292px" style="shape-rendering:geometricPrecision; text-rendering:geometricPrecision; image-rendering:optimizeQuality; fill-rule:evenodd; clip-rule:evenodd" xmlns:xlink="http://www.w3.org/1999/xlink">
<g><path style="opacity:0.993" fill="#37495c" d="M 527.5,-0.5 C 939.5,-0.5 1351.5,-0.5 1763.5,-0.5C 1943.82,15.0445 2086.65,95.7112 2192,241.5C 2252.18,329.529 2285.34,426.862 2291.5,533.5C 2291.5,941.5 2291.5,1349.5 2291.5,1757.5C 2280.67,1914.99 2217,2046.49 2100.5,2152C 2002.01,2236.55 1887.68,2283.05 1757.5,2291.5C 1349.5,2291.5 941.5,2291.5 533.5,2291.5C 371.404,2280.03 237.238,2213.37 131,2091.5C 52.4565,1996.43 8.62315,1887.09 -0.5,1763.5C -0.5,1351.5 -0.5,939.5 -0.5,527.5C 14.3019,351.349 91.9686,210.516 232.5,105C 320.792,42.2066 419.126,7.03993 527.5,-0.5 Z M 535.5,109.5 C 942.167,109.333 1348.83,109.5 1755.5,110C 1909.59,123.279 2028.76,194.112 2113,322.5C 2151.32,384.786 2173.65,452.453 2180,525.5C 2181.66,933.156 2181.99,1340.82 2181,1748.5C 2171.16,1893.38 2108.66,2009.21 1993.5,2096C 1920.36,2148.16 1838.69,2176.5 1748.5,2181C 1346.17,2181.67 943.833,2181.67 541.5,2181C 417.295,2173.47 312.795,2124.64 228,2034.5C 156.662,1955.44 117.329,1862.44 110,1755.5C 109.333,1348.83 109.333,942.167 110,535.5C 123.211,380.828 194.378,261.328 323.5,177C 388.732,137.311 459.398,114.811 535.5,109.5 Z"/></g>
<g><path style="opacity:0.995" fill="#37495c" d="M 1132.5,610.5 C 1167.02,607.884 1188.52,623.217 1197,656.5C 1197.5,801.166 1197.67,945.833 1197.5,1090.5C 1351.5,1090.33 1505.5,1090.5 1659.5,1091C 1688.02,1098.02 1703.35,1116.19 1705.5,1145.5C 1703.09,1175.73 1687.09,1193.9 1657.5,1200C 1504.17,1200.5 1350.83,1200.67 1197.5,1200.5C 1197.67,1362.5 1197.5,1524.5 1197,1686.5C 1192.84,1706.66 1181.34,1720.82 1162.5,1729C 1129.92,1737.95 1106.09,1727.45 1091,1697.5C 1089.69,1693.58 1088.69,1689.58 1088,1685.5C 1087.5,1523.83 1087.33,1362.17 1087.5,1200.5C 935.166,1200.67 782.833,1200.5 630.5,1200C 600.866,1193.86 584.866,1175.7 582.5,1145.5C 583.223,1124.2 592.557,1108.04 610.5,1097C 616.232,1094.2 622.232,1092.2 628.5,1091C 781.5,1090.5 934.5,1090.33 1087.5,1090.5C 1087.33,945.833 1087.5,801.166 1088,656.5C 1093.24,631.758 1108.08,616.425 1132.5,610.5 Z"/></g>
</svg>
