<?xml version="1.0" encoding="UTF-8"?>
<!DOCTYPE svg PUBLIC "-//W3C//DTD SVG 1.1//EN" "http://www.w3.org/Graphics/SVG/1.1/DTD/svg11.dtd">
<svg xmlns="http://www.w3.org/2000/svg" version="1.1" width="2084px" height="1588px" style="shape-rendering:geometricPrecision; text-rendering:geometricPrecision; image-rendering:optimizeQuality; fill-rule:evenodd; clip-rule:evenodd" xmlns:xlink="http://www.w3.org/1999/xlink">
<g><path style="opacity:0.992" fill="#37495c" d="M 268.5,-0.5 C 783.5,-0.5 1298.5,-0.5 1813.5,-0.5C 1903.71,7.34811 1975.88,47.3481 2030,119.5C 2061.63,164.556 2079.46,214.556 2083.5,269.5C 2083.5,618.833 2083.5,968.167 2083.5,1317.5C 2074.4,1415.68 2028.73,1491.51 1946.5,1545C 1903.01,1571.12 1856.01,1585.28 1805.5,1587.5C 1296.17,1587.5 786.833,1587.5 277.5,1587.5C 172.939,1580.68 93.1056,1533.02 38,1444.5C 16.1892,1406.57 3.35588,1365.9 -0.5,1322.5C -0.5,969.5 -0.5,616.5 -0.5,263.5C 9.62874,169.708 53.6287,96.5413 131.5,44C 173.614,18.0169 219.281,3.18359 268.5,-0.5 Z M 283.5,98.5 C 788.5,98.3333 1293.5,98.5 1798.5,99C 1848.06,100.508 1890.73,118.175 1926.5,152C 1634.6,366.234 1342.44,580.068 1050,793.5C 766.844,569.014 483.678,344.514 200.5,120C 226.671,106.708 254.337,99.5414 283.5,98.5 Z M 125.5,188.5 C 432.814,431.828 740.147,675.161 1047.5,918.5C 1357.45,692.394 1667.28,466.06 1977,239.5C 1981.61,253.726 1983.95,268.393 1984,283.5C 1984.67,623.5 1984.67,963.5 1984,1303.5C 1979.03,1380.66 1942.2,1436.49 1873.5,1471C 1853.74,1479.77 1833.07,1485.11 1811.5,1487C 1298.17,1487.67 784.833,1487.67 271.5,1487C 200.102,1478.56 148.269,1442.4 116,1378.5C 106.417,1357.17 100.75,1334.84 99,1311.5C 98.3333,965.833 98.3333,620.167 99,274.5C 101.346,243.771 110.179,215.104 125.5,188.5 Z"/></g>
</svg>
