<?xml version="1.0" encoding="UTF-8"?>
<!DOCTYPE svg PUBLIC "-//W3C//DTD SVG 1.1//EN" "http://www.w3.org/Graphics/SVG/1.1/DTD/svg11.dtd">
<svg xmlns="http://www.w3.org/2000/svg" version="1.1" width="1275px" height="943px" style="shape-rendering:geometricPrecision; text-rendering:geometricPrecision; image-rendering:optimizeQuality; fill-rule:evenodd; clip-rule:evenodd" xmlns:xlink="http://www.w3.org/1999/xlink">
<g><path style="opacity:0.993" fill="#37495c" d="M 467.5,-0.5 C 474.5,-0.5 481.5,-0.5 488.5,-0.5C 585.616,7.4858 655.449,55.1525 698,142.5C 703.301,155.071 707.801,167.904 711.5,181C 883.167,181.333 1054.83,181.667 1226.5,182C 1251.91,187.909 1267.91,203.409 1274.5,228.5C 1274.5,235.833 1274.5,243.167 1274.5,250.5C 1269.65,270.855 1257.65,285.355 1238.5,294C 1232.4,296.442 1226.07,297.775 1219.5,298C 1049.83,298.5 880.167,298.667 710.5,298.5C 691.145,372.025 647.145,425.192 578.5,458C 504.416,489.28 431.749,486.28 360.5,449C 302.199,414.438 263.865,364.438 245.5,299C 179.145,298.968 112.812,298.302 46.5,297C 19.4266,290.099 3.75991,272.932 -0.5,245.5C -0.5,241.5 -0.5,237.5 -0.5,233.5C 3.96871,207.86 18.6354,191.026 43.5,183C 110.8,181.85 178.133,181.017 245.5,180.5C 272.34,89.1593 331.674,30.9926 423.5,6C 438.171,2.83615 452.837,0.669486 467.5,-0.5 Z"/></g>
<g><path style="opacity:1" fill="#fefefe" d="M 465.5,116.5 C 527.539,114.417 570.705,141.75 595,198.5C 610.413,250.113 598.913,294.613 560.5,332C 525.797,360.968 486.463,369.635 442.5,358C 393.882,341.047 365.049,307.214 356,256.5C 351.329,201.34 372.495,159.507 419.5,131C 434.046,123.204 449.379,118.371 465.5,116.5 Z"/></g>
<g><path style="opacity:0.993" fill="#37495c" d="M 1274.5,691.5 C 1274.5,699.167 1274.5,706.833 1274.5,714.5C 1268.45,738.385 1253.45,753.552 1229.5,760C 1162.53,761.479 1095.53,761.979 1028.5,761.5C 1008.34,836.497 963.006,890.33 892.5,923C 868.32,933.127 843.32,939.627 817.5,942.5C 803.5,942.5 789.5,942.5 775.5,942.5C 681.6,930.818 614.767,882.151 575,796.5C 570.468,785.405 566.635,774.071 563.5,762.5C 392.501,761.667 221.501,761.167 50.5,761C 21.8706,755.205 4.87056,738.038 -0.5,709.5C -0.5,705.167 -0.5,700.833 -0.5,696.5C 4.87056,667.962 21.8706,650.795 50.5,645C 221.501,644.833 392.501,644.333 563.5,643.5C 589.801,553.366 648.134,495.533 738.5,470C 831.526,450.536 910.692,475.036 976,543.5C 1001.91,572.643 1019.41,606.31 1028.5,644.5C 1095.53,644.021 1162.53,644.521 1229.5,646C 1253.45,652.448 1268.45,667.615 1274.5,691.5 Z"/></g>
<g><path style="opacity:1" fill="#fefefe" d="M 782.5,579.5 C 845.195,577.42 888.695,605.086 913,662.5C 927.927,714.78 915.76,759.613 876.5,797C 832.036,831.299 784.702,835.632 734.5,810C 688.819,780.798 668.653,738.965 674,684.5C 686.88,625.33 723.047,590.33 782.5,579.5 Z"/></g>
</svg>
