<?xml version="1.0" encoding="UTF-8"?>
<!DOCTYPE svg PUBLIC "-//W3C//DTD SVG 1.1//EN" "http://www.w3.org/Graphics/SVG/1.1/DTD/svg11.dtd">
<svg xmlns="http://www.w3.org/2000/svg" version="1.1" width="1951px" height="1951px" style="shape-rendering:geometricPrecision; text-rendering:geometricPrecision; image-rendering:optimizeQuality; fill-rule:evenodd; clip-rule:evenodd" xmlns:xlink="http://www.w3.org/1999/xlink">
<g><path style="opacity:0.995" fill="#fefffe" d="M 167.5,-0.5 C 172.833,-0.5 178.167,-0.5 183.5,-0.5C 245.125,4.38691 292.625,32.7202 326,84.5C 353.78,134.134 358.114,185.801 339,239.5C 314.946,296.547 272.78,332.38 212.5,347C 140.453,359.325 81.2866,337.492 35,281.5C 13.7369,252.207 1.90352,219.541 -0.5,183.5C -0.5,178.167 -0.5,172.833 -0.5,167.5C 5.8729,96.3 41.2062,45.1333 105.5,14C 125.483,5.66875 146.15,0.835418 167.5,-0.5 Z"/></g>
<g><path style="opacity:0.995" fill="#fefffe" d="M 967.5,-0.5 C 972.833,-0.5 978.167,-0.5 983.5,-0.5C 1045.12,4.38691 1092.62,32.7202 1126,84.5C 1153.78,134.134 1158.11,185.801 1139,239.5C 1107.75,310.398 1053.25,347.398 975.5,350.5C 907.86,348.778 856.694,319.111 822,261.5C 791.761,203.323 792.094,145.323 823,87.5C 856.207,33.8044 904.374,4.47107 967.5,-0.5 Z"/></g>
<g><path style="opacity:0.995" fill="#fefffe" d="M 1767.5,-0.5 C 1772.83,-0.5 1778.17,-0.5 1783.5,-0.5C 1848.29,4.96754 1897.12,35.6342 1930,91.5C 1940.88,112.37 1947.71,134.37 1950.5,157.5C 1950.5,169.5 1950.5,181.5 1950.5,193.5C 1938.93,269.128 1896.93,319.294 1824.5,344C 1754.29,361.255 1694.12,344.088 1644,292.5C 1597.99,236.106 1587.99,173.772 1614,105.5C 1645.13,41.2062 1696.3,5.8729 1767.5,-0.5 Z"/></g>
<g><path style="opacity:0.995" fill="#fefffe" d="M -0.5,983.5 C -0.5,978.167 -0.5,972.833 -0.5,967.5C 6.37073,891.595 45.0374,839.095 115.5,810C 189.374,787.26 253.207,803.426 307,858.5C 351.2,912.689 361.867,973.022 339,1039.5C 307.753,1110.4 253.253,1147.4 175.5,1150.5C 107.86,1148.78 56.6936,1119.11 22,1061.5C 8.67288,1037.04 1.17288,1011.04 -0.5,983.5 Z"/></g>
<g><path style="opacity:0.995" fill="#fefffe" d="M 967.5,799.5 C 1039.34,799.613 1093.51,830.279 1130,891.5C 1151.85,933.991 1156.52,978.324 1144,1024.5C 1124.83,1085 1085,1124.83 1024.5,1144C 948.128,1162.32 884.961,1141.49 835,1081.5C 798.992,1030.45 790.659,975.116 810,915.5C 839.095,845.037 891.595,806.371 967.5,799.5 Z"/></g>
<g><path style="opacity:0.995" fill="#fefffe" d="M 1950.5,957.5 C 1950.5,969.5 1950.5,981.5 1950.5,993.5C 1938.93,1069.13 1896.93,1119.29 1824.5,1144C 1754.29,1161.26 1694.12,1144.09 1644,1092.5C 1600.5,1039.86 1589.17,980.858 1610,915.5C 1633.13,856.706 1675.29,819.54 1736.5,804C 1806.61,791.144 1865.11,811.311 1912,864.5C 1933.67,891.846 1946.51,922.846 1950.5,957.5 Z"/></g>
<g><path style="opacity:0.995" fill="#fefffe" d="M 193.5,1950.5 C 181.5,1950.5 169.5,1950.5 157.5,1950.5C 88.8039,1940.57 40.3039,1903.9 12,1840.5C 5.10751,1821.95 0.940844,1802.95 -0.5,1783.5C -0.5,1778.17 -0.5,1772.83 -0.5,1767.5C 5.8729,1696.3 41.2062,1645.13 105.5,1614C 173.772,1587.99 236.106,1597.99 292.5,1644C 344.088,1694.12 361.255,1754.29 344,1824.5C 319.294,1896.93 269.128,1938.93 193.5,1950.5 Z"/></g>
<g><path style="opacity:0.995" fill="#fefffe" d="M 993.5,1950.5 C 981.5,1950.5 969.5,1950.5 957.5,1950.5C 888.804,1940.57 840.304,1903.9 812,1840.5C 788.945,1774.83 798.945,1714.83 842,1660.5C 887.353,1611.27 943.187,1592.1 1009.5,1603C 1076.05,1618.22 1120.55,1658.05 1143,1722.5C 1162.43,1796.19 1144.26,1858.69 1088.5,1910C 1060.77,1932.74 1029.1,1946.24 993.5,1950.5 Z"/></g>
<g><path style="opacity:0.995" fill="#fefffe" d="M 1950.5,1757.5 C 1950.5,1769.5 1950.5,1781.5 1950.5,1793.5C 1938.93,1869.13 1896.93,1919.29 1824.5,1944C 1814.15,1946.77 1803.82,1948.94 1793.5,1950.5C 1781.5,1950.5 1769.5,1950.5 1757.5,1950.5C 1688.8,1940.57 1640.3,1903.9 1612,1840.5C 1588.95,1774.83 1598.95,1714.83 1642,1660.5C 1691.55,1607.73 1751.72,1589.56 1822.5,1606C 1885.1,1625.6 1925.94,1666.77 1945,1729.5C 1947.18,1738.91 1949.01,1748.24 1950.5,1757.5 Z"/></g>
</svg>
