<?xml version="1.0" encoding="UTF-8"?>
<!DOCTYPE svg PUBLIC "-//W3C//DTD SVG 1.1//EN" "http://www.w3.org/Graphics/SVG/1.1/DTD/svg11.dtd">
<svg xmlns="http://www.w3.org/2000/svg" version="1.1" width="2288px" height="2126px" style="shape-rendering:geometricPrecision; text-rendering:geometricPrecision; image-rendering:optimizeQuality; fill-rule:evenodd; clip-rule:evenodd" xmlns:xlink="http://www.w3.org/1999/xlink">
<g><path style="opacity:0.996" fill="#fefffe" d="M 1113.5,-0.5 C 1135.5,-0.5 1157.5,-0.5 1179.5,-0.5C 1409.27,10.6468 1601.1,100.98 1755,270.5C 1874.38,405.671 1938.21,564.004 1946.5,745.5C 1973.84,745.333 2001.17,745.5 2028.5,746C 2116.07,753.685 2186.24,792.185 2239,861.5C 2265.82,899.799 2281.99,942.132 2287.5,988.5C 2287.5,996.167 2287.5,1003.83 2287.5,1011.5C 2286.17,1022.48 2285.5,1033.81 2285.5,1045.5C 2285.83,1079 2286.49,1112.34 2287.5,1145.5C 2287.5,1148.17 2287.5,1150.83 2287.5,1153.5C 2287.04,1184.04 2285.87,1214.71 2284,1245.5C 2269.04,1332.77 2223.2,1398.27 2146.5,1442C 2113.66,1459.84 2078.66,1470.84 2041.5,1475C 1986.52,1476.62 1931.52,1476.96 1876.5,1476C 1836.22,1472.39 1813.72,1450.55 1809,1410.5C 1808.67,1193.17 1808.33,975.833 1808,758.5C 1803.68,580.726 1736.52,431.893 1606.5,312C 1399.41,125.453 1164.08,79.7859 900.5,175C 717.774,241.06 591.94,364.893 523,546.5C 505.423,593.896 492.756,642.563 485,692.5C 483.802,702.814 482.802,713.148 482,723.5C 480.684,945.823 480.017,1168.16 480,1390.5C 482.439,1444.22 456.939,1472.22 403.5,1474.5C 409.18,1562.11 441.013,1638.45 499,1703.5C 574,1788.25 668.167,1836.42 781.5,1848C 813.451,1851.01 845.451,1851.84 877.5,1850.5C 895.199,1795.63 930.532,1756.8 983.5,1734C 1012.12,1721.01 1042.12,1713.34 1073.5,1711C 1126.51,1708.91 1179.51,1709.25 1232.5,1712C 1305.86,1720.11 1361.36,1755.61 1399,1818.5C 1425.48,1868.11 1431.48,1920.11 1417,1974.5C 1391.94,2049.56 1341.11,2097.06 1264.5,2117C 1238.85,2121.35 1213.19,2124.18 1187.5,2125.5C 1167.83,2125.5 1148.17,2125.5 1128.5,2125.5C 1104.65,2124.07 1080.65,2122.57 1056.5,2121C 984.774,2113.2 930.274,2078.7 893,2017.5C 887.287,2006.74 882.12,1995.74 877.5,1984.5C 837.413,1984.42 797.413,1982.58 757.5,1979C 606.593,1959.98 482.427,1892.82 385,1777.5C 314.451,1689 274.951,1588 266.5,1474.5C 179.11,1468.23 108.61,1430.9 55,1362.5C 34.7199,1334.27 20.0532,1303.27 11,1269.5C 7.20707,1251.69 3.37374,1234.02 -0.5,1216.5C -0.5,1147.17 -0.5,1077.83 -0.5,1008.5C 7.06978,910.468 52.0698,835.301 134.5,783C 173.819,760.339 216.153,747.339 261.5,744C 288.831,743.5 316.165,743.333 343.5,743.5C 355.725,519.56 446.392,335.06 615.5,190C 759.075,69.4369 925.075,5.93687 1113.5,-0.5 Z"/></g>
</svg>
