<?xml version="1.0" encoding="UTF-8"?>
<!DOCTYPE svg PUBLIC "-//W3C//DTD SVG 1.1//EN" "http://www.w3.org/Graphics/SVG/1.1/DTD/svg11.dtd">
<svg xmlns="http://www.w3.org/2000/svg" version="1.1" width="1981px" height="1568px" style="shape-rendering:geometricPrecision; text-rendering:geometricPrecision; image-rendering:optimizeQuality; fill-rule:evenodd; clip-rule:evenodd" xmlns:xlink="http://www.w3.org/1999/xlink">
<g><path style="opacity:0.993" fill="#37495c" d="M 237.5,-0.5 C 241.833,-0.5 246.167,-0.5 250.5,-0.5C 256.552,0.853247 262.218,3.35325 267.5,7C 348,87.5 428.5,168 509,248.5C 598.964,186.108 696.797,139.608 802.5,109C 937.603,72.6419 1071.94,75.3085 1205.5,117C 1287.55,143.695 1364.88,180.028 1437.5,226C 1528.47,284.591 1612.8,351.924 1690.5,428C 1800.21,535.882 1896.88,653.716 1980.5,781.5C 1980.5,782.833 1980.5,784.167 1980.5,785.5C 1873.81,948.092 1746.48,1093.59 1598.5,1222C 1577.29,1239.39 1555.95,1256.55 1534.5,1273.5C 1611.82,1351.32 1689.32,1428.99 1767,1506.5C 1778.62,1526.61 1775.79,1544.44 1758.5,1560C 1752.85,1563.6 1746.85,1566.1 1740.5,1567.5C 1737.83,1567.5 1735.17,1567.5 1732.5,1567.5C 1725.76,1566.3 1719.43,1563.8 1713.5,1560C 1213.33,1059.83 713.167,559.667 213,59.5C 202.904,41.3193 204.738,24.4859 218.5,9C 224.378,4.72741 230.712,1.56075 237.5,-0.5 Z M 962.5,159.5 C 1049.19,157.003 1133.19,170.837 1214.5,201C 1295.16,231.655 1370.49,271.655 1440.5,321C 1541.49,393.284 1633.99,475.784 1718,568.5C 1779.56,636.033 1836.56,707.033 1889,781.5C 1889.67,782.5 1889.67,783.5 1889,784.5C 1786.32,931.883 1665.82,1063.72 1527.5,1180C 1511.59,1193.07 1495.26,1205.57 1478.5,1217.5C 1390.17,1129.83 1302.17,1041.83 1214.5,953.5C 1267.87,880.503 1284.03,799.837 1263,711.5C 1237.39,623.559 1182.89,560.726 1099.5,523C 1024.1,493.548 949.1,494.548 874.5,526C 855.52,534.68 837.853,545.346 821.5,558C 820.5,558.667 819.5,558.667 818.5,558C 733.986,473.653 649.653,389.153 565.5,304.5C 654.891,243.152 752.558,199.652 858.5,174C 892.972,166.67 927.638,161.837 962.5,159.5 Z"/></g>
<g><path style="opacity:0.987" fill="#37495c" d="M -0.5,784.5 C -0.5,783.833 -0.5,783.167 -0.5,782.5C 93.3325,638.204 203.999,507.204 331.5,389.5C 349.819,407.319 367.986,425.319 386,443.5C 386.667,444.167 386.667,444.833 386,445.5C 275.005,547.778 176.505,660.278 90.5,783C 188.334,922.873 302,1049.21 431.5,1162C 498.938,1219.73 571.605,1270.07 649.5,1313C 708.627,1344.9 770.627,1369.56 835.5,1387C 941.338,1414.68 1047.01,1414.01 1152.5,1385C 1196.33,1373.06 1238.83,1357.56 1280,1338.5C 1299.64,1356.97 1318.81,1375.97 1337.5,1395.5C 1117.01,1507.58 894.345,1512.08 669.5,1409C 575.578,1364.3 488.578,1309.3 408.5,1244C 314.403,1166.57 228.236,1081.07 150,987.5C 95.7293,922.75 45.5626,855.084 -0.5,784.5 Z"/></g>
</svg>
