<?xml version="1.0" encoding="UTF-8"?>
<!DOCTYPE svg PUBLIC "-//W3C//DTD SVG 1.1//EN" "http://www.w3.org/Graphics/SVG/1.1/DTD/svg11.dtd">
<svg xmlns="http://www.w3.org/2000/svg" version="1.1" width="1253px" height="1253px" style="shape-rendering:geometricPrecision; text-rendering:geometricPrecision; image-rendering:optimizeQuality; fill-rule:evenodd; clip-rule:evenodd" xmlns:xlink="http://www.w3.org/1999/xlink">
<g><path style="opacity:0.996" fill="#fefffe" d="M 115.5,-0.5 C 120.833,-0.5 126.167,-0.5 131.5,-0.5C 159.783,2.09696 184.783,12.597 206.5,31C 346.347,171.014 486.347,310.847 626.5,450.5C 767.32,310.18 907.986,169.68 1048.5,29C 1069.84,11.6115 1094.18,1.77815 1121.5,-0.5C 1126.83,-0.5 1132.17,-0.5 1137.5,-0.5C 1201.62,8.0566 1239.95,44.0566 1252.5,107.5C 1252.5,117.833 1252.5,128.167 1252.5,138.5C 1249.04,162.763 1239.54,184.43 1224,203.5C 1083.17,344.333 942.333,485.167 801.5,626C 941.333,765.833 1081.17,905.667 1221,1045.5C 1238.28,1065.06 1248.78,1087.72 1252.5,1113.5C 1252.5,1123.83 1252.5,1134.17 1252.5,1144.5C 1244.69,1192.48 1218.36,1225.98 1173.5,1245C 1163.9,1248.31 1154.24,1250.81 1144.5,1252.5C 1134.17,1252.5 1123.83,1252.5 1113.5,1252.5C 1087.29,1248.48 1064.29,1237.65 1044.5,1220C 905,1080.5 765.5,941 626,801.5C 485.167,942.333 344.333,1083.17 203.5,1224C 184.43,1239.54 162.763,1249.04 138.5,1252.5C 128.5,1252.5 118.5,1252.5 108.5,1252.5C 60.9068,1244.75 27.4068,1218.75 8,1174.5C 3.71017,1162.35 0.87684,1150.02 -0.5,1137.5C -0.5,1131.83 -0.5,1126.17 -0.5,1120.5C 1.9962,1093.52 11.8295,1069.52 29,1048.5C 169.68,907.986 310.18,767.32 450.5,626.5C 311.514,487.014 172.347,347.68 33,208.5C 13.1907,186.565 2.02406,160.899 -0.5,131.5C -0.5,125.833 -0.5,120.167 -0.5,114.5C 6.57143,58.5883 36.9048,21.755 90.5,4C 98.8981,2.04661 107.231,0.54661 115.5,-0.5 Z"/></g>
</svg>
