<?xml version="1.0" encoding="UTF-8"?>
<!DOCTYPE svg PUBLIC "-//W3C//DTD SVG 1.1//EN" "http://www.w3.org/Graphics/SVG/1.1/DTD/svg11.dtd">
<svg xmlns="http://www.w3.org/2000/svg" version="1.1" width="1518px" height="1518px" style="shape-rendering:geometricPrecision; text-rendering:geometricPrecision; image-rendering:optimizeQuality; fill-rule:evenodd; clip-rule:evenodd" xmlns:xlink="http://www.w3.org/1999/xlink">
<g><path style="opacity:0.999" fill="#d3ddfe" d="M 531.5,-0.5 C 682.833,-0.5 834.167,-0.5 985.5,-0.5C 1155.7,12.34 1293.87,85.0067 1400,217.5C 1472.07,312.2 1511.24,419.2 1517.5,538.5C 1517.5,685.167 1517.5,831.833 1517.5,978.5C 1507.46,1139.74 1442.46,1273.91 1322.5,1381C 1223.44,1464.98 1108.77,1510.48 978.5,1517.5C 831.833,1517.5 685.167,1517.5 538.5,1517.5C 380.042,1508.23 247.542,1445.23 141,1328.5C 55.3172,1230.42 8.15049,1116.08 -0.5,985.5C -0.5,834.167 -0.5,682.833 -0.5,531.5C 12.8542,356.257 88.8542,215.424 227.5,109C 318.005,42.9355 419.338,6.43549 531.5,-0.5 Z"/></g>
<g><path style="opacity:1" fill="#8132fa" d="M 792.5,548.5 C 804.885,547.341 816.218,550.175 826.5,557C 892,622.5 957.5,688 1023,753.5C 1034.5,771.03 1034.17,788.363 1022,805.5C 957.167,870.333 892.333,935.167 827.5,1000C 805.872,1014.28 786.039,1012.11 768,993.5C 756.704,976.152 756.704,958.818 768,941.5C 808.167,901.333 848.333,861.167 888.5,821C 762.833,820.667 637.167,820.333 511.5,820C 484.902,811.319 474.402,793.153 480,765.5C 485.426,751.074 495.593,741.907 510.5,738C 636.5,737.667 762.5,737.333 888.5,737C 849,697.5 809.5,658 770,618.5C 757.25,601.504 756.25,583.838 767,565.5C 773.862,557.168 782.362,551.501 792.5,548.5 Z"/></g>
</svg>
