<?xml version="1.0" encoding="UTF-8"?>
<!DOCTYPE svg PUBLIC "-//W3C//DTD SVG 1.1//EN" "http://www.w3.org/Graphics/SVG/1.1/DTD/svg11.dtd">
<svg xmlns="http://www.w3.org/2000/svg" version="1.1" width="1850px" height="2118px" style="shape-rendering:geometricPrecision; text-rendering:geometricPrecision; image-rendering:optimizeQuality; fill-rule:evenodd; clip-rule:evenodd" xmlns:xlink="http://www.w3.org/1999/xlink">
<g><path style="opacity:0.988" fill="#37495c" d="M 900.5,-0.5 C 916.167,-0.5 931.833,-0.5 947.5,-0.5C 1108.66,9.99231 1239.83,77.659 1341,202.5C 1441.34,336.247 1474.01,485.247 1439,649.5C 1402.74,792.62 1322.24,903.12 1197.5,981C 1063.84,1058.37 922.507,1076.37 773.5,1035C 616.268,984.767 504.102,884.267 437,733.5C 381.668,596.515 381.668,459.515 437,322.5C 492.179,197.624 581.345,105.79 704.5,47C 766.968,18.8823 832.301,3.04892 900.5,-0.5 Z M 904.5,80.5 C 1047.34,78.0205 1166.51,129.354 1262,234.5C 1358.29,350.332 1390.96,482.332 1360,630.5C 1328.33,755.093 1257.49,850.26 1147.5,916C 1026.29,982.706 900.294,993.372 769.5,948C 637.742,896.241 547.908,803.741 500,670.5C 458.37,537.834 473.036,411.834 544,292.5C 628.965,162.902 749.131,92.2356 904.5,80.5 Z"/></g>
<g><path style="opacity:0.989" fill="#37495c" d="M 1849.5,1569.5 C 1849.5,1627.83 1849.5,1686.17 1849.5,1744.5C 1842.75,1864.52 1792.75,1962.02 1699.5,2037C 1633.25,2086.92 1558.58,2113.75 1475.5,2117.5C 1108.17,2117.5 740.833,2117.5 373.5,2117.5C 233.204,2108.8 126.037,2045.13 52,1926.5C 21.0387,1872.46 3.53873,1814.46 -0.5,1752.5C -0.5,1687.83 -0.5,1623.17 -0.5,1558.5C 7.34427,1409.44 55.8443,1275.44 145,1156.5C 217.179,1064.48 312.012,1013.98 429.5,1005C 503.276,1001.15 572.609,1016.82 637.5,1052C 704.983,1092.13 772.983,1131.47 841.5,1170C 897.634,1193.62 953.634,1193.29 1009.5,1169C 1076.49,1130.84 1143.16,1092.17 1209.5,1053C 1311.72,998.793 1417.72,990.126 1527.5,1027C 1609.91,1058.41 1675.41,1110.91 1724,1184.5C 1802.76,1300.62 1844.59,1428.95 1849.5,1569.5 Z M 432.5,1085.5 C 491.862,1082.47 547.528,1095.3 599.5,1124C 668.18,1165.01 737.513,1205.01 807.5,1244C 883.563,1275.91 959.897,1276.58 1036.5,1246C 1049.27,1240.45 1061.6,1234.11 1073.5,1227C 1133.67,1191.41 1194,1156.08 1254.5,1121C 1347.85,1074.42 1441.52,1073.76 1535.5,1119C 1581.12,1143.61 1618.95,1177.11 1649,1219.5C 1719.21,1318.12 1758.55,1428.12 1767,1549.5C 1768.97,1618.84 1768.97,1688.17 1767,1757.5C 1755.72,1857.63 1708.22,1935.13 1624.5,1990C 1583.17,2015.78 1538.17,2030.78 1489.5,2035C 1118.51,2036.66 747.51,2036.99 376.5,2036C 263.679,2029.04 178.179,1977.54 120,1881.5C 96.884,1840.15 83.884,1795.82 81,1748.5C 80.3333,1686.5 80.3333,1624.5 81,1562.5C 88.0784,1421.78 135.745,1297.11 224,1188.5C 280.004,1127.08 349.504,1092.75 432.5,1085.5 Z"/></g>
</svg>
