<?xml version="1.0" encoding="UTF-8"?>
<!DOCTYPE svg PUBLIC "-//W3C//DTD SVG 1.1//EN" "http://www.w3.org/Graphics/SVG/1.1/DTD/svg11.dtd">
<svg xmlns="http://www.w3.org/2000/svg" version="1.1" width="2292px" height="2043px" style="shape-rendering:geometricPrecision; text-rendering:geometricPrecision; image-rendering:optimizeQuality; fill-rule:evenodd; clip-rule:evenodd" xmlns:xlink="http://www.w3.org/1999/xlink">
<g><path style="opacity:0.991" fill="#37495c" d="M 647.5,-0.5 C 656.833,-0.5 666.167,-0.5 675.5,-0.5C 731.89,1.34258 786.89,11.5092 840.5,30C 899.858,50.1804 955.525,77.5138 1007.5,112C 1054.74,144.241 1100.58,178.408 1145,214.5C 1164.79,199.715 1184.29,184.549 1203.5,169C 1240.62,140.938 1278.95,114.605 1318.5,90C 1371.47,60.018 1427.13,36.3513 1485.5,19C 1528.24,7.49126 1571.57,0.991256 1615.5,-0.5C 1624.83,-0.5 1634.17,-0.5 1643.5,-0.5C 1731.58,0.402677 1817.24,15.5693 1900.5,45C 2079.8,115.301 2198.97,242.135 2258,425.5C 2277.79,492.558 2288.96,560.891 2291.5,630.5C 2291.5,652.5 2291.5,674.5 2291.5,696.5C 2285.97,787.941 2263.81,875.274 2225,958.5C 2182.66,1047.1 2129.66,1128.43 2066,1202.5C 2042.75,1229.14 2018.92,1255.31 1994.5,1281C 1751.86,1519.97 1509.53,1759.31 1267.5,1999C 1235.62,2024.92 1198.95,2038.59 1157.5,2040C 1154.62,2040.55 1151.95,2041.38 1149.5,2042.5C 1141.5,2042.5 1133.5,2042.5 1125.5,2042.5C 1085.18,2037.78 1049.85,2021.95 1019.5,1995C 767.333,1746.17 515.167,1497.33 263,1248.5C 251.667,1235.83 240.333,1223.17 229,1210.5C 206,1180.83 183,1151.17 160,1121.5C 125.366,1072.6 95.0329,1020.93 69,966.5C 50.4298,923.125 34.4298,878.792 21,833.5C 9.59176,790.718 2.42509,747.385 -0.5,703.5C -0.5,676.5 -0.5,649.5 -0.5,622.5C 3.08194,534.159 21.2486,448.825 54,366.5C 112.883,229.243 209.717,128.409 344.5,64C 417.695,30.9392 494.362,10.9392 574.5,4C 598.956,1.90158 623.289,0.401578 647.5,-0.5 Z M 642.5,106.5 C 700.202,104.671 756.202,113.505 810.5,133C 870.023,153.923 925.023,182.923 975.5,220C 1023.62,254.737 1070.29,291.404 1115.5,330C 1136.02,341.578 1156.35,341.244 1176.5,329C 1193.34,312.819 1211.34,298.153 1230.5,285C 1275.87,247.481 1323.54,213.148 1373.5,182C 1424.3,153.288 1477.96,131.622 1534.5,117C 1565.96,110.089 1597.79,106.589 1630,106.5C 1709.41,106.097 1786.58,118.93 1861.5,145C 2012.2,203.703 2111.03,310.536 2158,465.5C 2188,571.842 2192.33,679.175 2171,787.5C 2154.88,853.739 2129.88,916.406 2096,975.5C 2049.44,1054.08 1994.44,1126.42 1931,1192.5C 1685.81,1435.36 1440.31,1677.86 1194.5,1920C 1189.06,1924.05 1183.06,1927.05 1176.5,1929C 1161.7,1931.44 1146.87,1933.61 1132,1935.5C 1114.43,1931.63 1099.26,1923.47 1086.5,1911C 841.277,1667.78 595.444,1425.28 349,1183.5C 334.629,1168.13 320.629,1152.46 307,1136.5C 290.049,1113.88 272.716,1091.55 255,1069.5C 218.079,1019.69 186.745,966.355 161,909.5C 142.735,866.039 128.069,821.372 117,775.5C 99.5342,675.684 103.534,576.684 129,478.5C 168.067,332.791 255.234,226.957 390.5,161C 447.904,135.315 507.904,118.981 570.5,112C 594.605,109.472 618.605,107.639 642.5,106.5 Z"/></g>
</svg>
