<?xml version="1.0" encoding="UTF-8"?>
<!DOCTYPE svg PUBLIC "-//W3C//DTD SVG 1.1//EN" "http://www.w3.org/Graphics/SVG/1.1/DTD/svg11.dtd">
<svg xmlns="http://www.w3.org/2000/svg" version="1.1" width="2110px" height="2109px" style="shape-rendering:geometricPrecision; text-rendering:geometricPrecision; image-rendering:optimizeQuality; fill-rule:evenodd; clip-rule:evenodd" xmlns:xlink="http://www.w3.org/1999/xlink">
<g><path style="opacity:0.999" fill="#b88afc" d="M 1026.5,-0.5 C 1044.83,-0.5 1063.17,-0.5 1081.5,-0.5C 1337.22,9.1981 1561.22,97.3648 1753.5,264C 1956.62,447.725 2073.45,676.559 2104,950.5C 2107.05,984.261 2108.88,1017.93 2109.5,1051.5C 2109.5,1053.17 2109.5,1054.83 2109.5,1056.5C 2104.97,1336.09 2008.13,1577.75 1819,1781.5C 1647.76,1958.88 1439.26,2065.04 1193.5,2100C 1162.77,2103.84 1132.1,2106.67 1101.5,2108.5C 1070.17,2108.5 1038.83,2108.5 1007.5,2108.5C 722.713,2091.66 481.88,1981 285,1776.5C 105.082,1580.54 9.91504,1348.87 -0.5,1081.5C -0.5,1063.17 -0.5,1044.83 -0.5,1026.5C 10.5024,752.275 110.002,516.275 298,318.5C 498.503,117.541 741.337,11.2081 1026.5,-0.5 Z"/></g>
<g><path style="opacity:1" fill="#fefefe" d="M 747.5,684.5 C 769.702,682.797 789.369,688.964 806.5,703C 889.014,785.68 971.68,868.18 1054.5,950.5C 1139.01,866.153 1223.68,781.986 1308.5,698C 1334.87,681.147 1361.87,680.147 1389.5,695C 1416.3,713.115 1427.47,738.282 1423,770.5C 1420.49,782.175 1415.83,792.842 1409,802.5C 1325.13,886.04 1241.63,969.873 1158.5,1054C 1242.32,1138.49 1326.15,1222.99 1410,1307.5C 1429.6,1337.38 1429.27,1367.05 1409,1396.5C 1385.43,1422.52 1356.93,1430.02 1323.5,1419C 1317.84,1416.51 1312.51,1413.51 1307.5,1410C 1222.99,1326.15 1138.49,1242.32 1054,1158.5C 969.873,1241.63 886.04,1325.13 802.5,1409C 767.071,1431.88 733.904,1429.05 703,1400.5C 685.087,1378.92 680.087,1354.58 688,1327.5C 690.554,1320.72 693.887,1314.39 698,1308.5C 781.986,1223.68 866.153,1139.01 950.5,1054.5C 868.514,972.014 786.347,889.68 704,807.5C 683.581,783.167 679.247,756.167 691,726.5C 702.928,703.055 721.761,689.055 747.5,684.5 Z"/></g>
</svg>
