<?xml version="1.0" encoding="UTF-8"?>
<!DOCTYPE svg PUBLIC "-//W3C//DTD SVG 1.1//EN" "http://www.w3.org/Graphics/SVG/1.1/DTD/svg11.dtd">
<svg xmlns="http://www.w3.org/2000/svg" version="1.1" width="1675px" height="2074px" style="shape-rendering:geometricPrecision; text-rendering:geometricPrecision; image-rendering:optimizeQuality; fill-rule:evenodd; clip-rule:evenodd" xmlns:xlink="http://www.w3.org/1999/xlink">
<g><path style="opacity:0.991" fill="#37495c" d="M 822.5,-0.5 C 832.167,-0.5 841.833,-0.5 851.5,-0.5C 1031.64,7.81992 1178.81,81.1532 1293,219.5C 1371.95,320.176 1413.95,434.843 1419,563.5C 1419.33,652.167 1419.67,740.833 1420,829.5C 1542.82,884.776 1623.16,977.109 1661,1106.5C 1667.7,1132.94 1672.2,1159.61 1674.5,1186.5C 1674.5,1352.5 1674.5,1518.5 1674.5,1684.5C 1660.42,1831.23 1590.76,1942.73 1465.5,2019C 1409.47,2050.62 1349.47,2068.79 1285.5,2073.5C 986.5,2073.5 687.5,2073.5 388.5,2073.5C 263.819,2062.25 162.653,2007.92 85,1910.5C 33.1706,1841.15 4.67056,1763.15 -0.5,1676.5C -0.5,1515.83 -0.5,1355.17 -0.5,1194.5C 11.0363,1047.53 78.703,934.699 202.5,856C 219.518,846.241 237.018,837.408 255,829.5C 255.333,736.167 255.667,642.833 256,549.5C 270.613,362.134 353.446,213.634 504.5,104C 600.225,38.2589 706.225,3.42552 822.5,-0.5 Z M 831.5,79.5 C 1007.55,82.9328 1147.05,155.266 1250,296.5C 1306.26,378.965 1335.93,470.298 1339,570.5C 1339.5,646.166 1339.67,721.833 1339.5,797.5C 1004.83,797.5 670.167,797.5 335.5,797.5C 335.333,716.833 335.5,636.166 336,555.5C 348.448,393.377 419.948,264.877 550.5,170C 635.103,111.928 728.77,81.7611 831.5,79.5 Z M 398.5,877.5 C 695.514,877.01 992.514,877.51 1289.5,879C 1403.7,892.977 1490.54,948.81 1550,1046.5C 1575.82,1091.76 1590.48,1140.43 1594,1192.5C 1594.67,1354.5 1594.67,1516.5 1594,1678.5C 1583.03,1796.34 1527.53,1886.17 1427.5,1948C 1381.99,1974.28 1332.99,1989.28 1280.5,1993C 985.167,1993.67 689.833,1993.67 394.5,1993C 274.007,1981.55 183.173,1924.05 122,1820.5C 96.2186,1773.82 82.2186,1723.82 80,1670.5C 79.3333,1513.83 79.3333,1357.17 80,1200.5C 86.0529,1101.23 126.553,1019.4 201.5,955C 258.962,908.613 324.629,882.779 398.5,877.5 Z"/></g>
</svg>
