<?xml version="1.0" encoding="UTF-8"?>
<!DOCTYPE svg PUBLIC "-//W3C//DTD SVG 1.1//EN" "http://www.w3.org/Graphics/SVG/1.1/DTD/svg11.dtd">
<svg xmlns="http://www.w3.org/2000/svg" version="1.1" width="1594px" height="1594px" style="shape-rendering:geometricPrecision; text-rendering:geometricPrecision; image-rendering:optimizeQuality; fill-rule:evenodd; clip-rule:evenodd" xmlns:xlink="http://www.w3.org/1999/xlink">
<g><path style="opacity:0.568" fill="#96a7b2" d="M 763.5,-0.5 C 785.5,-0.5 807.5,-0.5 829.5,-0.5C 1046.77,11.5903 1230.27,95.9237 1380,252.5C 1514.07,399.759 1585.24,573.426 1593.5,773.5C 1593.5,788.833 1593.5,804.167 1593.5,819.5C 1582.75,1053.48 1490.08,1247.64 1315.5,1402C 1172.52,1522.27 1007.19,1586.1 819.5,1593.5C 804.167,1593.5 788.833,1593.5 773.5,1593.5C 546.156,1583.28 355.656,1494.95 202,1328.5C 77.1391,1186.02 9.63906,1019.69 -0.5,829.5C -0.5,807.5 -0.5,785.5 -0.5,763.5C 12.6372,534.745 104.304,344.578 274.5,193C 415.192,73.5732 578.192,9.07323 763.5,-0.5 Z"/></g>
<g><path style="opacity:1" fill="#fefefe" d="M 560.5,517.5 C 576.98,515.093 591.98,518.593 605.5,528C 669,591.5 732.5,655 796,718.5C 859.861,654.306 924.027,590.472 988.5,527C 1001.88,517.992 1016.54,514.992 1032.5,518C 1065.76,528.951 1079.59,551.784 1074,586.5C 1071.73,593.714 1068.39,600.381 1064,606.5C 1000.65,669.68 937.486,733.014 874.5,796.5C 937.82,860.32 1001.32,923.986 1065,987.5C 1077.45,1006.72 1078.78,1026.72 1069,1047.5C 1055.52,1069.15 1036.02,1078.32 1010.5,1075C 1003.39,1073.45 996.726,1070.78 990.5,1067C 925.68,1003.01 861.014,938.847 796.5,874.5C 732.32,938.514 667.986,1002.35 603.5,1066C 575.91,1081.56 551.076,1078.06 529,1055.5C 518.508,1041.49 514.842,1025.82 518,1008.5C 519.914,1001.34 522.914,994.672 527,988.5C 590.472,924.027 654.306,859.861 718.5,796C 655,732.5 591.5,669 528,605.5C 516.379,587.59 514.379,568.59 522,548.5C 530.299,532.351 543.133,522.018 560.5,517.5 Z"/></g>
</svg>
