<?xml version="1.0" encoding="UTF-8"?>
<!DOCTYPE svg PUBLIC "-//W3C//DTD SVG 1.1//EN" "http://www.w3.org/Graphics/SVG/1.1/DTD/svg11.dtd">
<svg xmlns="http://www.w3.org/2000/svg" version="1.1" width="1834px" height="1834px" style="shape-rendering:geometricPrecision; text-rendering:geometricPrecision; image-rendering:optimizeQuality; fill-rule:evenodd; clip-rule:evenodd" xmlns:xlink="http://www.w3.org/1999/xlink">
<g><path style="opacity:0.994" fill="#fbfdfd" d="M 734.5,-0.5 C 758.833,-0.5 783.167,-0.5 807.5,-0.5C 1008.82,11.4338 1180.65,88.1004 1323,229.5C 1467.16,380.436 1540.66,560.936 1543.5,771C 1541.76,956.154 1483.1,1120.32 1367.5,1263.5C 1517.49,1413.99 1667.65,1564.32 1818,1714.5C 1826.41,1725.57 1831.57,1737.9 1833.5,1751.5C 1833.5,1757.5 1833.5,1763.5 1833.5,1769.5C 1826.5,1805.17 1805.17,1826.5 1769.5,1833.5C 1763.5,1833.5 1757.5,1833.5 1751.5,1833.5C 1737.51,1831.22 1724.84,1825.72 1713.5,1817C 1563.65,1666.99 1413.65,1517.15 1263.5,1367.5C 1102.21,1496.64 917.874,1554.48 710.5,1541C 491.84,1520.43 312.34,1426.6 172,1259.5C 66.6318,1127.95 9.13184,977.621 -0.5,808.5C -0.5,783.5 -0.5,758.5 -0.5,733.5C 15.0773,501.161 112.411,311.661 291.5,165C 421.592,64.0095 569.258,8.84284 734.5,-0.5 Z M 737.5,145.5 C 908.689,139.387 1058.69,191.887 1187.5,303C 1330.23,434.707 1400.07,598.207 1397,793.5C 1386.11,990.134 1303.94,1148.97 1150.5,1270C 1013.28,1371.06 859.611,1411.73 689.5,1392C 513.728,1365.74 372.562,1282.24 266,1141.5C 167.495,1002.81 129.495,848.809 152,679.5C 179.724,508.459 262.224,370.959 399.5,267C 500.303,194.116 612.97,153.616 737.5,145.5 Z"/></g>
</svg>
