<?xml version="1.0" encoding="UTF-8"?>
<!DOCTYPE svg PUBLIC "-//W3C//DTD SVG 1.1//EN" "http://www.w3.org/Graphics/SVG/1.1/DTD/svg11.dtd">
<svg xmlns="http://www.w3.org/2000/svg" version="1.1" width="1676px" height="1676px" style="shape-rendering:geometricPrecision; text-rendering:geometricPrecision; image-rendering:optimizeQuality; fill-rule:evenodd; clip-rule:evenodd" xmlns:xlink="http://www.w3.org/1999/xlink">
<g><path style="opacity:0.995" fill="#37495c" d="M 675.5,-0.5 C 697.5,-0.5 719.5,-0.5 741.5,-0.5C 936.838,11.932 1101,89.2653 1234,231.5C 1353.92,366.977 1415.09,525.81 1417.5,708C 1415.79,870.82 1365.79,1016.49 1267.5,1145C 1397,1274.5 1526.5,1404 1656,1533.5C 1666.91,1547.42 1673.41,1563.08 1675.5,1580.5C 1675.5,1585.83 1675.5,1591.17 1675.5,1596.5C 1668.29,1641.37 1642.29,1667.71 1597.5,1675.5C 1591.5,1675.5 1585.5,1675.5 1579.5,1675.5C 1562.48,1673.16 1547.15,1666.66 1533.5,1656C 1404,1526.5 1274.5,1397 1145,1267.5C 996.308,1380.32 828.475,1429.15 641.5,1414C 447.45,1393.24 287.617,1309.07 162,1161.5C 62.1634,1038.88 7.99674,898.217 -0.5,739.5C -0.5,718.5 -0.5,697.5 -0.5,676.5C 11.5329,477.954 90.5329,311.787 236.5,178C 362.046,68.6211 508.379,9.12112 675.5,-0.5 Z M 684.5,172.5 C 849.847,169.078 989.347,226.745 1103,345.5C 1212.97,470.096 1258.3,615.429 1239,781.5C 1215.54,932.777 1142.71,1053.61 1020.5,1144C 887.069,1235.55 741.069,1263.88 582.5,1229C 439.201,1192.15 328.368,1111.32 250,986.5C 173.941,856.425 153.941,718.091 190,571.5C 230.415,427.391 314.915,317.557 443.5,242C 518.578,200.317 598.911,177.15 684.5,172.5 Z"/></g>
</svg>
