<?xml version="1.0" encoding="UTF-8"?>
<!DOCTYPE svg PUBLIC "-//W3C//DTD SVG 1.1//EN" "http://www.w3.org/Graphics/SVG/1.1/DTD/svg11.dtd">
<svg xmlns="http://www.w3.org/2000/svg" version="1.1" width="2092px" height="1478px" style="shape-rendering:geometricPrecision; text-rendering:geometricPrecision; image-rendering:optimizeQuality; fill-rule:evenodd; clip-rule:evenodd" xmlns:xlink="http://www.w3.org/1999/xlink">
<g><path style="opacity:0.988" fill="#37495c" d="M 1007.5,-0.5 C 1032.5,-0.5 1057.5,-0.5 1082.5,-0.5C 1193.95,7.36338 1299.95,35.8634 1400.5,85C 1492.27,130.2 1577.61,184.866 1656.5,249C 1826.7,390 1971.7,552.5 2091.5,736.5C 2091.5,737.5 2091.5,738.5 2091.5,739.5C 1973.58,921.312 1830.92,1082.14 1663.5,1222C 1580.63,1290.14 1490.63,1347.81 1393.5,1395C 1292.77,1443.18 1186.77,1470.68 1075.5,1477.5C 1055.17,1477.5 1034.83,1477.5 1014.5,1477.5C 905.132,1470.66 800.798,1443.83 701.5,1397C 601.344,1348.74 508.677,1289.41 423.5,1219C 258.097,1079.83 116.763,920.327 -0.5,740.5C -0.5,739.167 -0.5,737.833 -0.5,736.5C 118.062,553.708 261.728,392.208 430.5,252C 512.197,185.074 600.864,128.408 696.5,82C 795.082,34.9394 898.748,7.43937 1007.5,-0.5 Z M 1016.5,79.5 C 1113.55,76.7867 1207.22,93.2867 1297.5,129C 1370.32,158.067 1438.98,194.401 1503.5,238C 1600.01,304.464 1689.17,380.297 1771,465.5C 1852.82,551.117 1927.66,642.117 1995.5,738.5C 1896.93,879.615 1782.93,1007.78 1653.5,1123C 1579.28,1188.55 1498.94,1245.55 1412.5,1294C 1339.08,1334.7 1261.41,1364.36 1179.5,1383C 1057.86,1408.08 938.529,1399.75 821.5,1358C 732.094,1325.64 648.761,1282.3 571.5,1228C 481.421,1163.76 397.587,1091.59 320,1011.5C 237.999,926.021 163.165,835.021 95.5,738.5C 209.156,573.648 344.156,427.814 500.5,301C 573.441,243.161 652.108,193.827 736.5,153C 825.257,110.645 918.591,86.1452 1016.5,79.5 Z M 1036.5,520.5 C 1109.67,520.008 1169.5,547.674 1216,603.5C 1266.21,671.675 1275.88,745.341 1245,824.5C 1208.54,901.171 1148.04,944.671 1063.5,955C 982.731,959 917.898,929.167 869,865.5C 825.148,801.021 816.482,732.021 843,658.5C 880.394,574.621 944.894,528.621 1036.5,520.5 Z"/></g>
<g><path style="opacity:0.988" fill="#37495c" d="M 1028.5,440.5 C 1125.45,437.743 1206.28,472.076 1271,543.5C 1339.25,627.422 1358.92,721.755 1330,826.5C 1299.82,916.343 1240.99,979.509 1153.5,1016C 1067.5,1047.17 983.831,1041.83 902.5,1000C 813.245,948.077 762.079,870.577 749,767.5C 741.697,669.038 773.531,585.871 844.5,518C 897.012,471.587 958.345,445.754 1028.5,440.5 Z M 1036.5,520.5 C 944.894,528.621 880.394,574.621 843,658.5C 816.482,732.021 825.148,801.021 869,865.5C 917.898,929.167 982.731,959 1063.5,955C 1148.04,944.671 1208.54,901.171 1245,824.5C 1275.88,745.341 1266.21,671.675 1216,603.5C 1169.5,547.674 1109.67,520.008 1036.5,520.5 Z"/></g>
</svg>
