<?xml version="1.0" encoding="UTF-8"?>
<!DOCTYPE svg PUBLIC "-//W3C//DTD SVG 1.1//EN" "http://www.w3.org/Graphics/SVG/1.1/DTD/svg11.dtd">
<svg xmlns="http://www.w3.org/2000/svg" version="1.1" width="1276px" height="2126px" style="shape-rendering:geometricPrecision; text-rendering:geometricPrecision; image-rendering:optimizeQuality; fill-rule:evenodd; clip-rule:evenodd" xmlns:xlink="http://www.w3.org/1999/xlink">
<g><path style="opacity:0.997" fill="#37495c" d="M 1044.5,-0.5 C 1056.17,-0.5 1067.83,-0.5 1079.5,-0.5C 1163.59,9.45103 1223.42,52.7844 1259,129.5C 1268.15,151.759 1273.65,174.759 1275.5,198.5C 1275.5,207.5 1275.5,216.5 1275.5,225.5C 1271.53,275.909 1252.7,319.909 1219,357.5C 983.986,592.347 749.153,827.347 514.5,1062.5C 750.486,1298.99 986.653,1535.32 1223,1771.5C 1254.06,1808.18 1271.56,1850.52 1275.5,1898.5C 1275.5,1907.83 1275.5,1917.17 1275.5,1926.5C 1266.45,2010.79 1223.78,2071.29 1147.5,2108C 1123.98,2117.8 1099.65,2123.63 1074.5,2125.5C 1066.17,2125.5 1057.83,2125.5 1049.5,2125.5C 1000.56,2121.8 957.565,2103.97 920.5,2072C 631,1782.5 341.5,1493 52,1203.5C 21.7664,1167.98 4.26643,1126.98 -0.5,1080.5C -0.5,1068.17 -0.5,1055.83 -0.5,1043.5C 4.99175,993.522 24.8251,950.189 59,913.5C 343.833,628.667 628.667,343.833 913.5,59C 950.459,24.5224 994.126,4.68903 1044.5,-0.5 Z"/></g>
</svg>
