<?xml version="1.0" encoding="UTF-8"?>
<!DOCTYPE svg PUBLIC "-//W3C//DTD SVG 1.1//EN" "http://www.w3.org/Graphics/SVG/1.1/DTD/svg11.dtd">
<svg xmlns="http://www.w3.org/2000/svg" version="1.1" width="1276px" height="2126px" style="shape-rendering:geometricPrecision; text-rendering:geometricPrecision; image-rendering:optimizeQuality; fill-rule:evenodd; clip-rule:evenodd" xmlns:xlink="http://www.w3.org/1999/xlink">
<g><path style="opacity:0.997" fill="#37495c" d="M 194.5,-0.5 C 206.167,-0.5 217.833,-0.5 229.5,-0.5C 276.343,4.09096 317.676,21.591 353.5,52C 643.333,341.833 933.167,631.667 1223,921.5C 1254.06,958.183 1271.56,1000.52 1275.5,1048.5C 1275.5,1057.83 1275.5,1067.17 1275.5,1076.5C 1271.33,1126.53 1252.49,1170.2 1219,1207.5C 931.833,1494.67 644.667,1781.83 357.5,2069C 319.616,2102.91 275.283,2121.74 224.5,2125.5C 216.167,2125.5 207.833,2125.5 199.5,2125.5C 114.939,2117.15 54.1061,2074.81 17,1998.5C 7.69071,1976.59 1.85738,1953.93 -0.5,1930.5C -0.5,1918.17 -0.5,1905.83 -0.5,1893.5C 5.07912,1843.01 25.2458,1799.35 60,1762.5C 293.986,1529.68 527.486,1296.35 760.5,1062.5C 524.847,826.347 289.014,590.347 53,354.5C 22.3015,318.765 4.4682,277.431 -0.5,230.5C -0.5,218.167 -0.5,205.833 -0.5,193.5C 9.62278,111.398 51.9561,52.5647 126.5,17C 148.405,7.6912 171.072,1.85787 194.5,-0.5 Z"/></g>
</svg>
