<?xml version="1.0" encoding="utf-8"?>
<!-- Generator: Adobe Illustrator 26.2.1, SVG Export Plug-In . SVG Version: 6.00 Build 0)  -->
<svg version="1.1" id="Layer_1" xmlns="http://www.w3.org/2000/svg" xmlns:xlink="http://www.w3.org/1999/xlink" x="0px" y="0px"
	 viewBox="0 0 76.85 45.21" style="enable-background:new 0 0 76.85 45.21;" xml:space="preserve">
<style type="text/css">
	.st0{fill:#7728FE;}
</style>
<path class="st0" d="M64.28,19.78c-2.53-5.96-8.4-9.89-14.93-9.89c-1.18,0-2.35,0.13-3.49,0.38C43.22,4.07,37.13,0,30.32,0
	C20.99,0,13.4,7.61,13.4,16.96c0,0.01,0,0.01,0,0.02C5.95,17.34,0,23.53,0,31.08c0,7.79,6.33,14.13,14.1,14.13h50.06
	c7,0,12.69-5.7,12.69-12.72C76.85,25.53,71.22,19.85,64.28,19.78z M64.16,42.39H40.43v-11.2c0-0.47,0.38-0.84,0.84-0.84h3.67
	c0.74,0,1.12-0.88,0.62-1.42l-4.09-4.41l-4.79-5.16c-0.33-0.36-0.9-0.36-1.24,0l-4.79,5.16l-4.09,4.41
	c-0.5,0.54-0.12,1.42,0.62,1.42h3.67c0.47,0,0.84,0.38,0.84,0.84v11.2H14.1c-6.22,0-11.28-5.07-11.28-11.3
	c0-6.23,5.06-11.3,11.28-11.3c0.24,0,0.47,0.01,0.7,0.03c0.42,0.03,0.81-0.13,1.09-0.43c0.28-0.29,0.43-0.7,0.39-1.11
	c-0.04-0.44-0.06-0.88-0.06-1.32c0-7.79,6.33-14.13,14.1-14.13c6.04,0,11.41,3.85,13.34,9.58c0.24,0.72,1.02,1.12,1.75,0.9
	c1.27-0.39,2.6-0.59,3.94-0.59c5.68,0,10.76,3.61,12.64,8.97c0.21,0.59,0.79,0.98,1.4,0.94c0.24-0.01,0.5-0.03,0.76-0.03
	c5.44,0,9.87,4.44,9.87,9.89C74.03,37.95,69.6,42.39,64.16,42.39z"/>
</svg>
