<?xml version="1.0" encoding="UTF-8"?>
<!DOCTYPE svg PUBLIC "-//W3C//DTD SVG 1.1//EN" "http://www.w3.org/Graphics/SVG/1.1/DTD/svg11.dtd">
<svg xmlns="http://www.w3.org/2000/svg" version="1.1" width="2090px" height="2242px" style="shape-rendering:geometricPrecision; text-rendering:geometricPrecision; image-rendering:optimizeQuality; fill-rule:evenodd; clip-rule:evenodd" xmlns:xlink="http://www.w3.org/1999/xlink">
<g><path style="opacity:0.996" fill="#7728fe" d="M 1028.5,-0.5 C 1039.17,-0.5 1049.83,-0.5 1060.5,-0.5C 1108.13,8.28287 1139.96,35.6162 1156,81.5C 1157.85,88.0646 1159.18,94.7313 1160,101.5C 1160.67,471.167 1160.67,840.833 1160,1210.5C 1153.17,1255.33 1129,1286.83 1087.5,1305C 1043.17,1320.48 1002.83,1313.48 966.5,1284C 943.055,1261.94 930.222,1234.77 928,1202.5C 927.333,838.167 927.333,473.833 928,109.5C 934.93,48.4088 968.43,11.7421 1028.5,-0.5 Z"/></g>
<g><path style="opacity:0.996" fill="#7728fe" d="M 2089.5,1162.5 C 2089.5,1185.5 2089.5,1208.5 2089.5,1231.5C 2077.01,1495.7 1981.18,1724.03 1802,1916.5C 1619.04,2105.38 1395.88,2212.55 1132.5,2238C 1115.68,2239.24 1099.01,2240.41 1082.5,2241.5C 1057.17,2241.5 1031.83,2241.5 1006.5,2241.5C 713.548,2226.09 467.714,2111.42 269,1897.5C 103.031,1710.59 13.1975,1491.59 -0.5,1240.5C -0.5,1211.5 -0.5,1182.5 -0.5,1153.5C 12.2014,913.109 95.7014,701.443 250,518.5C 273.074,492.423 297.241,467.257 322.5,443C 358.595,413.183 398.928,405.85 443.5,421C 485.718,439.565 510.218,471.732 517,517.5C 519.729,548.967 511.729,577.3 493,602.5C 333.487,752.564 246.82,937.564 233,1157.5C 225.497,1383.31 296.83,1579.64 447,1746.5C 608.756,1917.26 807.923,2004.59 1044.5,2008.5C 1284.49,2004.22 1485.66,1914.56 1648,1739.5C 1796.61,1570.03 1865.61,1372.03 1855,1145.5C 1841.14,957.547 1771.81,793.881 1647,654.5C 1631.28,638.289 1615.28,622.289 1599,606.5C 1569.94,569.491 1563.61,528.825 1580,484.5C 1604.48,433.83 1644.98,410.33 1701.5,414C 1728.28,417.356 1751.28,428.356 1770.5,447C 1948.17,620.525 2052.34,831.358 2083,1079.5C 2085.92,1107.27 2088.08,1134.93 2089.5,1162.5 Z"/></g>
</svg>
