<?xml version="1.0" encoding="UTF-8"?>
<!DOCTYPE svg PUBLIC "-//W3C//DTD SVG 1.1//EN" "http://www.w3.org/Graphics/SVG/1.1/DTD/svg11.dtd">
<svg xmlns="http://www.w3.org/2000/svg" version="1.1" width="1768px" height="2018px" style="shape-rendering:geometricPrecision; text-rendering:geometricPrecision; image-rendering:optimizeQuality; fill-rule:evenodd; clip-rule:evenodd" xmlns:xlink="http://www.w3.org/1999/xlink">
<g><path style="opacity:0.991" fill="#fefffe" d="M 862.5,-0.5 C 877.833,-0.5 893.167,-0.5 908.5,-0.5C 1054.05,9.51632 1172.55,70.8497 1264,183.5C 1353.84,303.662 1384.17,437.662 1355,585.5C 1323.74,716.939 1251.58,819.106 1138.5,892C 1015.26,965.948 884.259,983.615 745.5,945C 600.901,898.399 498.067,805.566 437,666.5C 389.473,546.549 388.473,426.216 434,305.5C 489.806,172.028 585.306,79.5279 720.5,28C 766.646,11.871 813.979,2.37095 862.5,-0.5 Z M 877.5,107.5 C 1008.69,109.01 1113.19,162.01 1191,266.5C 1258.5,365.815 1276.16,473.482 1244,589.5C 1207.5,701 1135.66,780.5 1028.5,828C 917.21,871.503 808.876,865.169 703.5,809C 592.885,743.602 529.385,646.769 513,518.5C 503.853,376.331 555.686,262.497 668.5,177C 731.296,133.346 800.963,110.179 877.5,107.5 Z"/></g>
<g><path style="opacity:0.99" fill="#fefffe" d="M 1767.5,1510.5 C 1767.5,1568.83 1767.5,1627.17 1767.5,1685.5C 1759.96,1804.13 1707.29,1896.63 1609.5,1963C 1555.59,1996.64 1496.92,2014.81 1433.5,2017.5C 1066.5,2017.5 699.5,2017.5 332.5,2017.5C 212.946,2010.16 119.779,1957.16 53,1858.5C 21.2087,1807.63 3.3754,1752.29 -0.5,1692.5C -0.5,1628.5 -0.5,1564.5 -0.5,1500.5C 8.14278,1348.34 60.9761,1214.01 158,1097.5C 240.327,1011.83 340.827,975.661 459.5,989C 500.044,994.515 538.377,1006.85 574.5,1026C 634.998,1061.08 695.331,1096.41 755.5,1132C 828.675,1173.79 904.341,1178.79 982.5,1147C 1051.82,1108.34 1120.49,1068.68 1188.5,1028C 1277.93,981.19 1370.6,973.523 1466.5,1005C 1531.19,1028.42 1585.02,1066.92 1628,1120.5C 1716,1235.3 1762.5,1365.3 1767.5,1510.5 Z M 395.5,1094.5 C 444.545,1091.54 490.212,1102.37 532.5,1127C 593.336,1162.92 654.336,1198.59 715.5,1234C 829.661,1291.53 943.327,1290.53 1056.5,1231C 1124.84,1191.16 1193.51,1151.83 1262.5,1113C 1317.98,1090.99 1374.31,1088.65 1431.5,1106C 1482.1,1123.28 1522.27,1154.11 1552,1198.5C 1615.87,1288.1 1651.21,1388.1 1658,1498.5C 1658.67,1562.83 1658.67,1627.17 1658,1691.5C 1648.88,1775.88 1607.71,1839.05 1534.5,1881C 1505.37,1896.37 1474.37,1905.37 1441.5,1908C 1070.17,1908.67 698.833,1908.67 327.5,1908C 236.827,1897.78 171.327,1851.94 131,1770.5C 120.113,1745.95 113.446,1720.29 111,1693.5C 110.333,1627.83 110.333,1562.17 111,1496.5C 119.376,1375.83 161.042,1268.49 236,1174.5C 279.17,1128 332.337,1101.33 395.5,1094.5 Z"/></g>
</svg>
