<?xml version="1.0" encoding="UTF-8"?>
<!DOCTYPE svg PUBLIC "-//W3C//DTD SVG 1.1//EN" "http://www.w3.org/Graphics/SVG/1.1/DTD/svg11.dtd">
<svg xmlns="http://www.w3.org/2000/svg" version="1.1" width="1744px" height="1991px" style="shape-rendering:geometricPrecision; text-rendering:geometricPrecision; image-rendering:optimizeQuality; fill-rule:evenodd; clip-rule:evenodd" xmlns:xlink="http://www.w3.org/1999/xlink">
<g><path style="opacity:0.991" fill="#7728fe" d="M 860.5,-0.5 C 867.833,-0.5 875.167,-0.5 882.5,-0.5C 1015.95,4.90179 1128.78,55.5685 1221,151.5C 1317.55,258.829 1359.22,384.829 1346,529.5C 1330.16,657.051 1273.66,762.218 1176.5,845C 1061.63,936.639 931.295,970.639 785.5,947C 640.825,917.641 530.992,839.808 456,713.5C 393,598.17 378,476.836 411,349.5C 452.01,211.498 536.843,110.331 665.5,46C 727.416,17.1032 792.416,1.6032 860.5,-0.5 Z M 852.5,107.5 C 986.363,105.187 1093.2,157.187 1173,263.5C 1240.08,362.633 1257.41,469.967 1225,585.5C 1184.82,705.68 1104.99,786.847 985.5,829C 862.2,865.334 748.867,845.668 645.5,770C 542.641,686.196 495.141,577.696 503,444.5C 517.371,320.841 576.871,226.008 681.5,160C 734.398,128.865 791.398,111.365 852.5,107.5 Z"/></g>
<g><path style="opacity:0.993" fill="#7728fe" d="M 1743.5,1490.5 C 1743.5,1547.83 1743.5,1605.17 1743.5,1662.5C 1735.23,1784.25 1679.9,1877.75 1577.5,1943C 1530.67,1970.22 1480.33,1986.06 1426.5,1990.5C 1056.5,1990.5 686.5,1990.5 316.5,1990.5C 220.293,1981.98 140.793,1941.32 78,1868.5C 31.0406,1810.89 4.87397,1744.89 -0.5,1670.5C -0.5,1607.17 -0.5,1543.83 -0.5,1480.5C 7.35419,1331.04 58.8542,1199.04 154,1084.5C 239.954,995.292 344.454,960.126 467.5,979C 502.58,985.693 535.914,997.36 567.5,1014C 635.173,1053.84 703.173,1093.17 771.5,1132C 838.985,1160.96 906.318,1160.63 973.5,1131C 1039.83,1093.17 1105.83,1054.84 1171.5,1016C 1255.71,971.236 1343.71,961.902 1435.5,988C 1505.05,1009.83 1562.21,1049.33 1607,1106.5C 1692.64,1219.91 1738.14,1347.91 1743.5,1490.5 Z M 385.5,1081.5 C 431.037,1078.24 474.037,1087.07 514.5,1108C 572.5,1142 630.5,1176 688.5,1210C 789.016,1268.26 893.683,1276.92 1002.5,1236C 1014.74,1230.88 1026.74,1225.21 1038.5,1219C 1100.5,1182.67 1162.5,1146.33 1224.5,1110C 1284.11,1078.45 1346.11,1072.78 1410.5,1093C 1452.44,1107.38 1487.6,1131.55 1516,1165.5C 1588.53,1258.04 1628.2,1363.38 1635,1481.5C 1635.67,1543.17 1635.67,1604.83 1635,1666.5C 1625.29,1757.46 1579.46,1822.96 1497.5,1863C 1470.09,1875.02 1441.42,1881.69 1411.5,1883C 1051.5,1883.67 691.5,1883.67 331.5,1883C 246.027,1876.71 181.194,1837.21 137,1764.5C 120.895,1735.52 111.228,1704.52 108,1671.5C 107.333,1606.17 107.333,1540.83 108,1475.5C 116.121,1357.74 156.788,1253.08 230,1161.5C 271.638,1115.1 323.471,1088.43 385.5,1081.5 Z"/></g>
</svg>
