<?xml version="1.0" encoding="utf-8"?>
<!-- Generator: Adobe Illustrator 26.2.1, SVG Export Plug-In . SVG Version: 6.00 Build 0)  -->
<svg version="1.1" id="Layer_1" xmlns="http://www.w3.org/2000/svg" xmlns:xlink="http://www.w3.org/1999/xlink" x="0px" y="0px"
	 viewBox="0 0 8 9" style="enable-background:new 0 0 8 9;" xml:space="preserve">
<g>
	<path style="fill:#FFFFFF;" d="M6.14,4.89c0.33,0,0.64,0.15,0.85,0.41c0.34,0.43,0.53,0.97,0.53,1.52v0.65
		c0,0.58-0.48,1.06-1.07,1.06H4H1.56c-0.59,0-1.07-0.47-1.07-1.06V6.82c0-0.55,0.19-1.09,0.53-1.52c0.2-0.26,0.51-0.41,0.85-0.41
		c0.18,0,0.35,0.04,0.49,0.12L3.2,5.49C3.44,5.63,3.72,5.7,4,5.7c0.28,0,0.56-0.07,0.8-0.21l0.82-0.47
		C5.78,4.93,5.96,4.89,6.14,4.89 M6.14,4.4c-0.25,0-0.51,0.06-0.74,0.19L4.56,5.07C4.38,5.17,4.19,5.22,4,5.22
		c-0.19,0-0.38-0.05-0.56-0.15L2.61,4.59C2.37,4.46,2.12,4.4,1.86,4.4C1.4,4.4,0.94,4.61,0.63,5C0.22,5.52,0,6.16,0,6.82v0.65
		C0,8.31,0.7,9,1.56,9H4h2.44C7.3,9,8,8.31,8,7.46V6.82C8,6.16,7.78,5.52,7.37,5C7.06,4.61,6.6,4.4,6.14,4.4L6.14,4.4z"/>
	<path style="fill:#FFFFFF;" d="M4,0.48c0.94,0,1.7,0.75,1.7,1.67c0,0.92-0.76,1.67-1.7,1.67S2.3,3.08,2.3,2.16
		C2.3,1.23,3.06,0.48,4,0.48 M4,0C2.79,0,1.81,0.97,1.81,2.16c0,1.19,0.98,2.16,2.19,2.16c1.21,0,2.19-0.97,2.19-2.16
		C6.19,0.97,5.21,0,4,0L4,0z"/>
</g>
</svg>
