<?xml version="1.0" encoding="UTF-8"?>
<!DOCTYPE svg PUBLIC "-//W3C//DTD SVG 1.1//EN" "http://www.w3.org/Graphics/SVG/1.1/DTD/svg11.dtd">
<svg xmlns="http://www.w3.org/2000/svg" version="1.1" width="2176px" height="1918px" style="shape-rendering:geometricPrecision; text-rendering:geometricPrecision; image-rendering:optimizeQuality; fill-rule:evenodd; clip-rule:evenodd" xmlns:xlink="http://www.w3.org/1999/xlink">
<g><path style="opacity:0.991" fill="#7728fe" d="M 814.5,-0.5 C 829.167,-0.5 843.833,-0.5 858.5,-0.5C 1016.66,11.7966 1139.16,83.7966 1226,215.5C 1291.14,323.026 1310.48,438.359 1284,561.5C 1249.88,695.995 1172.38,796.828 1051.5,864C 940.331,920.804 824.665,932.137 704.5,898C 569.209,854.042 472.375,767.208 414,637.5C 363.078,511.019 365.744,385.686 422,261.5C 478.109,149.059 564.943,70.5594 682.5,26C 725.414,11.0507 769.414,2.21734 814.5,-0.5 Z M 820.5,103.5 C 945.244,101.859 1045.74,149.859 1122,247.5C 1188.09,340.982 1206.76,443.315 1178,554.5C 1144.88,660.954 1077.71,737.454 976.5,784C 874.673,825.88 774.339,822.547 675.5,774C 578.489,721.225 516.656,641.059 490,533.5C 467.415,413.309 496.415,307.643 577,216.5C 643.404,147.386 724.571,109.719 820.5,103.5 Z"/></g>
<g><path style="opacity:0.997" fill="#7728fe" d="M 2175.5,518.5 C 2175.5,523.5 2175.5,528.5 2175.5,533.5C 2172.76,574.892 2160.26,613.226 2138,648.5C 2123.17,671.8 2106.17,693.466 2087,713.5C 2004.19,794.638 1921.69,876.138 1839.5,958C 1830.7,963.985 1821.2,968.485 1811,971.5C 1801.74,968.62 1792.91,964.786 1784.5,960C 1697.69,874.862 1611.19,789.362 1525,703.5C 1512.67,687.5 1500.33,671.5 1488,655.5C 1446.16,592.991 1435.5,525.324 1456,452.5C 1472.57,399.923 1506.07,362.423 1556.5,340C 1598.96,323.777 1642.62,319.443 1687.5,327C 1716.98,334.574 1743.98,347.24 1768.5,365C 1782.65,376.311 1796.65,387.811 1810.5,399.5C 1832.36,382.475 1854.36,365.642 1876.5,349C 1912.9,328.818 1951.9,320.484 1993.5,324C 2056.55,326.933 2106.39,353.767 2143,404.5C 2164.43,439.541 2175.26,477.541 2175.5,518.5 Z"/></g>
<g><path style="opacity:0.992" fill="#7728fe" d="M 1360.5,1917.5 C 1012.17,1917.5 663.833,1917.5 315.5,1917.5C 197.012,1909.7 106.512,1855.7 44,1755.5C 17.7218,1709.51 2.88848,1660.17 -0.5,1607.5C -0.5,1547.83 -0.5,1488.17 -0.5,1428.5C 6.63296,1282.64 56.7996,1153.98 150,1042.5C 224.601,966.066 315.434,932.233 422.5,941C 466.315,946.161 507.648,959.161 546.5,980C 609.177,1018.01 672.51,1055.01 736.5,1091C 811.447,1123.96 884.781,1120.63 956.5,1081C 1016,1045.41 1075.67,1010.08 1135.5,975C 1190.11,946.811 1248.11,935.144 1309.5,940C 1412.76,949.026 1494.59,995.192 1555,1078.5C 1629.26,1181.61 1669.6,1296.94 1676,1424.5C 1676.67,1486.5 1676.67,1548.5 1676,1610.5C 1666.6,1720.77 1616.1,1806.27 1524.5,1867C 1474.14,1898.07 1419.48,1914.9 1360.5,1917.5 Z M 374.5,1040.5 C 420.591,1037.52 463.258,1048.02 502.5,1072C 558.668,1105.59 615.002,1138.92 671.5,1172C 763.305,1220.94 858.305,1228.28 956.5,1194C 969.171,1189.11 981.505,1183.44 993.5,1177C 1060.01,1137.58 1127.01,1098.91 1194.5,1061C 1223.33,1049.2 1253.33,1043.37 1284.5,1043.5C 1284.5,1042.5 1284.5,1041.5 1284.5,1040.5C 1359.07,1042.87 1419.24,1073.2 1465,1131.5C 1530.7,1219.32 1566.37,1318.32 1572,1428.5C 1572.95,1489.85 1572.62,1551.18 1571,1612.5C 1557.52,1700.63 1509.69,1761.8 1427.5,1796C 1404.93,1804.48 1381.6,1809.14 1357.5,1810C 1010.17,1810.67 662.833,1810.67 315.5,1810C 236.378,1804.55 175.545,1768.71 133,1702.5C 113.041,1669.29 102.374,1633.29 101,1594.5C 100.333,1542.17 100.333,1489.83 101,1437.5C 105.096,1321.19 142.429,1217.19 213,1125.5C 254.706,1074.39 308.539,1046.06 374.5,1040.5 Z"/></g>
</svg>
