<?xml version="1.0" encoding="UTF-8"?>
<!DOCTYPE svg PUBLIC "-//W3C//DTD SVG 1.1//EN" "http://www.w3.org/Graphics/SVG/1.1/DTD/svg11.dtd">
<svg xmlns="http://www.w3.org/2000/svg" version="1.1" width="2008px" height="1718px" style="shape-rendering:geometricPrecision; text-rendering:geometricPrecision; image-rendering:optimizeQuality; fill-rule:evenodd; clip-rule:evenodd" xmlns:xlink="http://www.w3.org/1999/xlink">
<g><path style="opacity:0.994" fill="#7728fe" d="M 995.5,-0.5 C 1001.5,-0.5 1007.5,-0.5 1013.5,-0.5C 1049.26,5.75452 1070.76,26.7545 1078,62.5C 1078.33,386.833 1078.67,711.167 1079,1035.5C 1177.5,937 1276,838.5 1374.5,740C 1402.83,715.966 1433.5,712.633 1466.5,730C 1498.48,753.741 1507.98,784.574 1495,822.5C 1491.84,828.834 1488.17,834.834 1484,840.5C 1340.17,984.333 1196.33,1128.17 1052.5,1272C 1030.79,1288.54 1006.79,1292.87 980.5,1285C 972.558,1282.03 965.225,1278.03 958.5,1273C 814,1128.5 669.5,984 525,839.5C 502.277,806.407 503.277,774.074 528,742.5C 556.471,716.15 587.971,711.983 622.5,730C 624.833,731.667 627.167,733.333 629.5,735C 729.667,835.167 829.833,935.333 930,1035.5C 930.333,713.5 930.667,391.5 931,69.5C 935.729,30.6077 957.229,7.27436 995.5,-0.5 Z"/></g>
<g><path style="opacity:0.994" fill="#7728fe" d="M 2007.5,988.5 C 2007.5,1139.5 2007.5,1290.5 2007.5,1441.5C 1999.71,1541.62 1954.04,1619.12 1870.5,1674C 1826.76,1700.53 1779.42,1715.03 1728.5,1717.5C 1245.17,1717.5 761.833,1717.5 278.5,1717.5C 174.106,1710.41 94.2728,1662.74 39,1574.5C 16.4355,1534.98 3.2688,1492.65 -0.5,1447.5C -0.5,1313.17 -0.5,1178.83 -0.5,1044.5C 6.65378,1009.85 27.6538,989.013 62.5,982C 99.7229,978.688 126.223,993.855 142,1027.5C 144.614,1034.62 146.28,1041.95 147,1049.5C 147.333,1180.5 147.667,1311.5 148,1442.5C 155.484,1493.62 181.984,1531.12 227.5,1555C 246.477,1564 266.477,1568.66 287.5,1569C 764.833,1569.67 1242.17,1569.67 1719.5,1569C 1778.23,1565.57 1820.73,1537.74 1847,1485.5C 1853.66,1470.52 1857.66,1454.85 1859,1438.5C 1859.33,1287.83 1859.67,1137.17 1860,986.5C 1864.59,958.576 1879.76,938.743 1905.5,927C 1938.06,916.015 1966.22,922.848 1990,947.5C 1999.72,959.598 2005.55,973.265 2007.5,988.5 Z"/></g>
</svg>
