<?xml version="1.0" encoding="UTF-8"?>
<!DOCTYPE svg PUBLIC "-//W3C//DTD SVG 1.1//EN" "http://www.w3.org/Graphics/SVG/1.1/DTD/svg11.dtd">
<svg xmlns="http://www.w3.org/2000/svg" version="1.1" width="2139px" height="2101px" style="shape-rendering:geometricPrecision; text-rendering:geometricPrecision; image-rendering:optimizeQuality; fill-rule:evenodd; clip-rule:evenodd" xmlns:xlink="http://www.w3.org/1999/xlink">
<g><path style="opacity:0.997" fill="#7728fe" d="M 1014.5,-0.5 C 1046.83,-0.5 1079.17,-0.5 1111.5,-0.5C 1188.14,6.6375 1233.97,47.9708 1249,123.5C 1246.43,199.72 1280.26,250.553 1350.5,276C 1352.09,276.862 1353.75,277.529 1355.5,278C 1362.07,279.741 1368.73,281.075 1375.5,282C 1395.02,288.727 1414.68,295.06 1434.5,301C 1438.34,303.422 1442.01,306.089 1445.5,309C 1494.7,323.968 1539.7,315.968 1580.5,285C 1622.71,242.194 1673.04,228.527 1731.5,244C 1749.4,249.447 1765.73,257.78 1780.5,269C 1810.03,296.863 1838.53,325.696 1866,355.5C 1894.68,397.276 1901.01,442.276 1885,490.5C 1879.3,505.581 1871.3,519.247 1861,531.5C 1823.16,565.884 1807.83,608.551 1815,659.5C 1815.9,666.913 1817.24,674.246 1819,681.5C 1823.56,691.725 1828.56,701.725 1834,711.5C 1851.81,760.268 1866.81,809.934 1879,860.5C 1902.86,961.599 1907.86,1063.6 1894,1166.5C 1909.45,1066.21 1906.12,966.546 1884,867.5C 1875.91,833.154 1866.91,799.154 1857,765.5C 1880.3,825.928 1924.46,857.594 1989.5,860.5C 1989.5,859.167 1989.5,857.833 1989.5,856.5C 2053.22,858.92 2099.05,888.587 2127,945.5C 2132.58,959.502 2136.41,973.835 2138.5,988.5C 2138.5,1025.17 2138.5,1061.83 2138.5,1098.5C 2127.47,1172.69 2084.81,1215.53 2010.5,1227C 1937.84,1225.72 1886.34,1257.89 1856,1323.5C 1850.25,1338.93 1845.25,1354.6 1841,1370.5C 1834.63,1382.25 1829.63,1394.58 1826,1407.5C 1823.36,1410.45 1821.53,1413.78 1820.5,1417.5C 1823.93,1417.52 1826.6,1418.85 1828.5,1421.5C 1811.84,1479.54 1825.67,1528.87 1870,1569.5C 1907.24,1619.11 1912.9,1672.11 1887,1728.5C 1880.51,1739.98 1872.67,1750.48 1863.5,1760C 1837.83,1785 1812.17,1810 1786.5,1835C 1742.65,1864.64 1695.65,1870.64 1645.5,1853C 1622.84,1844 1603.18,1830.67 1586.5,1813C 1557.56,1792.25 1525.23,1783.25 1489.5,1786C 1479.02,1786.74 1468.68,1788.4 1458.5,1791C 1453.33,1793.75 1448.33,1796.75 1443.5,1800C 1423.43,1806.14 1403.43,1812.47 1383.5,1819C 1342.52,1825.68 1310.02,1845.84 1286,1879.5C 1268.56,1911.24 1260.23,1945.24 1261,1981.5C 1250.89,2034.25 1221.06,2070.75 1171.5,2091C 1159.01,2095.45 1146.35,2098.62 1133.5,2100.5C 1094.83,2100.5 1056.17,2100.5 1017.5,2100.5C 946.919,2089.75 904.419,2049.42 890,1979.5C 893.382,1921.53 871.549,1876.03 824.5,1843C 815.665,1837.41 806.665,1832.08 797.5,1827C 784.502,1824.25 771.502,1821.58 758.5,1819C 738.557,1812.46 718.557,1806.13 698.5,1800C 682.195,1790.36 664.529,1786.19 645.5,1787.5C 603.065,1787.72 567.398,1803.22 538.5,1834C 498.885,1861.94 455.552,1869.6 408.5,1857C 387.983,1851.24 369.65,1841.58 353.5,1828C 326.972,1801.81 300.805,1775.31 275,1748.5C 240.577,1699.59 235.91,1647.93 261,1593.5C 269.723,1578.1 280.723,1564.43 294,1552.5C 316.854,1522.77 326.188,1489.1 322,1451.5C 321.432,1445.43 320.432,1439.43 319,1433.5C 311.667,1420.17 304.333,1406.83 297,1393.5C 287.45,1367.41 278.784,1341.08 271,1314.5C 249.014,1267.06 211.848,1240.56 159.5,1235C 111.254,1237.59 70.0869,1222.09 36,1188.5C 13.5754,1162.65 1.4087,1132.65 -0.5,1098.5C -0.5,1066.17 -0.5,1033.83 -0.5,1001.5C 4.53594,933.597 39.5359,889.431 104.5,869C 113.001,866.472 121.668,864.805 130.5,864C 189.553,865.395 234.72,841.228 266,791.5C 268.667,786.833 271.333,782.167 274,777.5C 274.421,773.128 275.088,768.795 276,764.5C 281.206,750.737 285.873,736.737 290,722.5C 295.838,712.484 300.005,701.818 302.5,690.5C 299.482,690.665 296.482,690.498 293.5,690C 297.544,684.079 301.711,678.245 306,672.5C 307.893,669.382 309.226,666.049 310,662.5C 315.115,626.959 309.448,593.292 293,561.5C 286.193,550.912 278.193,541.245 269,532.5C 232.305,488.009 223.305,438.342 242,383.5C 247.472,370.548 254.472,358.548 263,347.5C 289.833,320.667 316.667,293.833 343.5,267C 385.425,235.1 431.758,226.767 482.5,242C 499.283,247.39 514.616,255.39 528.5,266C 556.638,295.67 591.305,310.504 632.5,310.5C 651.11,311.348 668.443,307.181 684.5,298C 713.883,288.239 743.55,279.572 773.5,272C 779.914,271.871 786.247,271.204 792.5,270C 828.556,256.276 852.723,231.11 865,194.5C 873.46,171.946 877.46,148.613 877,124.5C 887.3,63.2007 922.133,23.3673 981.5,5C 992.514,2.35851 1003.51,0.525176 1014.5,-0.5 Z M 1061.5,585.5 C 1201.67,586.578 1319.51,637.911 1415,739.5C 1512.88,850.971 1549.88,980.304 1526,1127.5C 1495.92,1267.51 1419.09,1373.01 1295.5,1444C 1168.16,1511 1036.82,1520 901.5,1471C 764.285,1414.45 672.785,1315.62 627,1174.5C 586.249,1023.93 612.582,886.602 706,762.5C 797.795,650.687 916.295,591.687 1061.5,585.5 Z"/></g>
</svg>
