<?xml version="1.0" encoding="UTF-8"?>
<!DOCTYPE svg PUBLIC "-//W3C//DTD SVG 1.1//EN" "http://www.w3.org/Graphics/SVG/1.1/DTD/svg11.dtd">
<svg xmlns="http://www.w3.org/2000/svg" version="1.1" width="2120px" height="1901px" style="shape-rendering:geometricPrecision; text-rendering:geometricPrecision; image-rendering:optimizeQuality; fill-rule:evenodd; clip-rule:evenodd" xmlns:xlink="http://www.w3.org/1999/xlink">
<g><path style="opacity:0.995" fill="#7728fe" d="M 613.5,-0.5 C 624.167,-0.5 634.833,-0.5 645.5,-0.5C 738.634,4.92473 826.634,29.4247 909.5,73C 939.697,90.259 968.697,109.259 996.5,130C 1017.31,145.308 1037.97,160.808 1058.5,176.5C 1134.78,113.333 1219.78,64.5001 1313.5,30C 1366,12.799 1419.66,2.63232 1474.5,-0.5C 1484.83,-0.5 1495.17,-0.5 1505.5,-0.5C 1585.49,0.776524 1663.49,14.2765 1739.5,40C 1915.69,106.525 2031.86,229.691 2088,409.5C 2106.53,473.342 2117.03,538.342 2119.5,604.5C 2119.5,623.5 2119.5,642.5 2119.5,661.5C 2114.64,745.269 2095.14,825.603 2061,902.5C 2020.34,990.566 1968.67,1071.23 1906,1144.5C 1890.33,1162.17 1874.67,1179.83 1859,1197.5C 1640.83,1414.33 1422.67,1631.17 1204.5,1848C 1169.92,1878.62 1129.59,1896.12 1083.5,1900.5C 1072.17,1900.5 1060.83,1900.5 1049.5,1900.5C 1037.77,1898.2 1026.44,1894.37 1015.5,1889C 979.437,1881.3 947.437,1865.63 919.5,1842C 702.5,1626.33 485.5,1410.67 268.5,1195C 262.5,1190.33 256.5,1185.67 250.5,1181C 202.09,1128.61 158.257,1072.78 119,1013.5C 76.2661,944.687 43.2661,871.354 20,793.5C 9.03215,752.362 2.19882,710.695 -0.5,668.5C -0.5,644.5 -0.5,620.5 -0.5,596.5C 2.93791,510.817 20.7712,428.15 53,348.5C 126.701,181.82 251.534,73.9869 427.5,25C 488.657,9.27374 550.657,0.773745 613.5,-0.5 Z M 595.5,190.5 C 642.182,187.001 687.849,192.167 732.5,206C 769.165,216.549 803.831,231.549 836.5,251C 883.342,283.507 929.342,317.174 974.5,352C 982.379,359.724 990.046,367.724 997.5,376C 1032.57,402.191 1069.57,405.191 1108.5,385C 1117.01,378.909 1125.35,372.576 1133.5,366C 1200.37,299.535 1277.71,248.535 1365.5,213C 1398.38,202.03 1432.05,194.696 1466.5,191C 1534,187.687 1600,196.02 1664.5,216C 1786.09,257.253 1866.25,339.086 1905,461.5C 1928.72,542.222 1934.72,624.222 1923,707.5C 1910.7,771.761 1888.03,832.094 1855,888.5C 1815.91,954.276 1769.91,1014.94 1717,1070.5C 1502,1280.83 1287,1491.17 1072,1701.5C 1062.43,1698.46 1052.6,1696.63 1042.5,1696C 830.861,1486.03 619.527,1275.69 408.5,1065C 397.701,1055.87 387.201,1046.37 377,1036.5C 336.774,991.952 300.774,944.285 269,893.5C 242.256,847.291 220.923,798.624 205,747.5C 192.152,701.354 187.152,654.354 190,606.5C 191.79,540.548 205.456,477.214 231,416.5C 283.678,303.19 371.178,232.69 493.5,205C 527.269,197.485 561.269,192.652 595.5,190.5 Z"/></g>
</svg>
