<?xml version="1.0" encoding="UTF-8"?>
<!DOCTYPE svg PUBLIC "-//W3C//DTD SVG 1.1//EN" "http://www.w3.org/Graphics/SVG/1.1/DTD/svg11.dtd">
<svg xmlns="http://www.w3.org/2000/svg" version="1.1" width="1948px" height="1909px" style="shape-rendering:geometricPrecision; text-rendering:geometricPrecision; image-rendering:optimizeQuality; fill-rule:evenodd; clip-rule:evenodd" xmlns:xlink="http://www.w3.org/1999/xlink">
<g><path style="opacity:0.993" fill="#7728fe" d="M 527.5,-0.5 C 824.833,-0.5 1122.17,-0.5 1419.5,-0.5C 1589.77,9.70956 1727.93,81.0429 1834,213.5C 1906.08,308.902 1943.92,416.569 1947.5,536.5C 1947.5,815.167 1947.5,1093.83 1947.5,1372.5C 1939.54,1551.94 1864.54,1695.77 1722.5,1804C 1636.19,1866.05 1539.85,1900.89 1433.5,1908.5C 1126.83,1908.5 820.167,1908.5 513.5,1908.5C 350.814,1895.25 218.314,1825.58 116,1699.5C 44.2786,1606.52 5.44528,1501.19 -0.5,1383.5C -0.5,1097.17 -0.5,810.833 -0.5,524.5C 11.448,345.389 89.448,203.223 233.5,98C 321.977,37.1186 419.977,4.28524 527.5,-0.5 Z M 520.5,137.5 C 822.167,137.333 1123.83,137.5 1425.5,138C 1563.84,150.505 1671.01,214.339 1747,329.5C 1781.49,385.316 1801.83,445.983 1808,511.5C 1809.66,802.154 1809.99,1092.82 1809,1383.5C 1799.21,1510.95 1744.04,1613.45 1643.5,1691C 1581.32,1736.57 1511.66,1762.9 1434.5,1770C 1131.85,1771.66 829.178,1771.99 526.5,1771C 396.112,1761.24 291.945,1704.41 214,1600.5C 169.083,1537.43 143.75,1467.1 138,1389.5C 137.333,1099.5 137.333,809.5 138,519.5C 151.567,379.106 217.4,271.272 335.5,196C 392.699,162.099 454.365,142.599 520.5,137.5 Z"/></g>
<g><path style="opacity:0.991" fill="#7728fe" d="M 962.5,496.5 C 1001.41,493.858 1027.24,510.858 1040,547.5C 1040.96,552.123 1041.62,556.79 1042,561.5C 1042.5,669.499 1042.67,777.499 1042.5,885.5C 1161.83,885.333 1281.17,885.5 1400.5,886C 1428.49,889.982 1447.65,905.148 1458,931.5C 1468.12,970.745 1455.29,999.579 1419.5,1018C 1414.95,1019.74 1410.28,1021.07 1405.5,1022C 1284.53,1023.49 1163.53,1023.99 1042.5,1023.5C 1042.98,1148.85 1042.48,1274.19 1041,1399.5C 1035.48,1425.35 1020.32,1442.85 995.5,1452C 959.342,1461.16 931.509,1449.99 912,1418.5C 908.251,1410.92 905.917,1402.92 905,1394.5C 904.5,1270.83 904.333,1147.17 904.5,1023.5C 783.144,1023.98 661.81,1023.48 540.5,1022C 510.585,1015.08 492.419,996.585 486,966.5C 482.213,935.805 493.047,911.971 518.5,895C 525.121,891.348 532.121,888.682 539.5,887C 661.141,885.513 782.807,885.013 904.5,885.5C 904.333,775.833 904.5,666.166 905,556.5C 910.785,523.551 929.951,503.551 962.5,496.5 Z"/></g>
</svg>
